<?xml version="1.0" encoding="UTF-8" standalone="no"?>
<svg
   xmlns:dc="http://purl.org/dc/elements/1.1/"
   xmlns:cc="http://creativecommons.org/ns#"
   xmlns:rdf="http://www.w3.org/1999/02/22-rdf-syntax-ns#"
   xmlns:svg="http://www.w3.org/2000/svg"
   xmlns="http://www.w3.org/2000/svg"
   xmlns:xlink="http://www.w3.org/1999/xlink"
   xmlns:sodipodi="http://sodipodi.sourceforge.net/DTD/sodipodi-0.dtd"
   xmlns:inkscape="http://www.inkscape.org/namespaces/inkscape"
   width="119"
   height="123"
   viewBox="0.023 -0.342 119 123"
   overflow="visible"
   enable-background="new 0.023 -0.342 119 123"
   xml:space="preserve"
   id="svg1"
   sodipodi:version="0.32"
   inkscape:version="0.91 r13725"
   sodipodi:docname="server-monitor.svg"
   inkscape:export-filename="/home/arcisz/Desktop/Projekty/mycomputer.png"
   inkscape:export-xdpi="96.809998"
   inkscape:export-ydpi="96.809998"
   version="1.1"><defs
     id="defs168"><linearGradient
       inkscape:collect="always"
       id="linearGradient5180"><stop
         style="stop-color:#5f8dd3;stop-opacity:1"
         offset="0"
         id="stop5182" /><stop
         style="stop-color:#afc6e9;stop-opacity:1"
         offset="1"
         id="stop5184" /></linearGradient><inkscape:perspective
       sodipodi:type="inkscape:persp3d"
       inkscape:vp_x="-251.56323 : 129.36979 : 1"
       inkscape:vp_y="0 : 3956.0301 : 0"
       inkscape:vp_z="160.80768 : 158.01236 : 1"
       inkscape:persp3d-origin="-53.195354 : -162.42608 : 1"
       id="perspective4220" /><linearGradient
       id="linearGradient2049"><stop
         offset="0.033700000"
         style="stop-color:#00ff00;stop-opacity:1.0000000;"
         id="stop2050" /><stop
         offset="1.0000000"
         style="stop-color:#009700;stop-opacity:1.0000000;"
         id="stop2051" /></linearGradient><linearGradient
       id="linearGradient2020"><stop
         offset="0.0000000"
         style="stop-color:#9e9e9e;stop-opacity:1.0000000;"
         id="stop2022" /><stop
         offset="1.0000000"
         style="stop-color:#616161;stop-opacity:1.0000000;"
         id="stop2021" /></linearGradient><linearGradient
       id="linearGradient2017"><stop
         offset="0.0000000"
         style="stop-color:#9e9e9e;stop-opacity:1.0000000;"
         id="stop2019" /><stop
         offset="1.0000000"
         style="stop-color:#616161;stop-opacity:1.0000000;"
         id="stop2018" /></linearGradient><linearGradient
       id="linearGradient2001"><stop
         offset="0.033700000"
         style="stop-color:#ffffff;stop-opacity:1.0000000;"
         id="stop2003" /><stop
         offset="1.0000000"
         style="stop-color:#878787;stop-opacity:1.0000000;"
         id="stop2002" /></linearGradient><linearGradient
       id="linearGradient1987"><stop
         offset="0.033700000"
         style="stop-color:#ffffff;stop-opacity:1.0000000;"
         id="stop1989" /><stop
         offset="1.0000000"
         style="stop-color:#b2b2b2;stop-opacity:1.0000000;"
         id="stop1988" /></linearGradient><linearGradient
       id="linearGradient1939"><stop
         offset="0.0000000"
         style="stop-color:#ffffff;stop-opacity:1.0000000;"
         id="stop1941" /><stop
         offset="1.0000000"
         style="stop-color:#cfcfcf;stop-opacity:1.0000000;"
         id="stop1940" /></linearGradient><linearGradient
       id="linearGradient1925"><stop
         offset="0.0000000"
         style="stop-color:#ffffff;stop-opacity:1.0000000;"
         id="stop1927" /><stop
         offset="1.0000000"
         style="stop-color:#ffffff;stop-opacity:0.0000000;"
         id="stop1926" /></linearGradient><linearGradient
       id="linearGradient1910"><stop
         offset="0.033700000"
         style="stop-color:#ffffff;stop-opacity:1.0000000;"
         id="stop1912" /><stop
         offset="1.0000000"
         style="stop-color:#b2b2b2;stop-opacity:1.0000000;"
         id="stop1911" /></linearGradient><linearGradient
       id="linearGradient1902"><stop
         offset="0.0000000"
         style="stop-color:#9e9e9e;stop-opacity:1.0000000;"
         id="stop1904" /><stop
         offset="1.0000000"
         style="stop-color:#616161;stop-opacity:1.0000000;"
         id="stop1903" /></linearGradient><linearGradient
       id="linearGradient1895"><stop
         offset="0.0000000"
         style="stop-color:#cccccc;stop-opacity:1.0000000;"
         id="stop1897" /><stop
         offset="1.0000000"
         style="stop-color:#616161;stop-opacity:1.0000000;"
         id="stop1896" /></linearGradient><linearGradient
       inkscape:collect="always"
       xlink:href="#linearGradient1902"
       id="linearGradient1894"
       gradientTransform="matrix(0.6573817,0,0,1.528169,-53.631615,0.7939598)"
       x1="167.02687"
       y1="72.892693"
       x2="167.02687"
       y2="7.5409803"
       gradientUnits="userSpaceOnUse" /><linearGradient
       inkscape:collect="always"
       xlink:href="#linearGradient1902"
       id="linearGradient1901"
       gradientTransform="matrix(0.6573817,0,0,1.528169,-52.12873,4.3567078)"
       x1="131.02010"
       y1="69.246124"
       x2="131.02010"
       y2="6.2129593"
       gradientUnits="userSpaceOnUse" /><linearGradient
       inkscape:collect="always"
       xlink:href="#linearGradient1925"
       id="linearGradient1924"
       gradientTransform="scale(0.739360,1.352522)"
       x1="108.45679"
       y1="33.612988"
       x2="134.87514"
       y2="60.464489"
       gradientUnits="userSpaceOnUse" /><linearGradient
       inkscape:collect="always"
       xlink:href="#linearGradient1902"
       id="linearGradient1928"
       gradientUnits="userSpaceOnUse"
       gradientTransform="matrix(0.68373712,0,0,1.587269,-58.229781,3.4662088)"
       x1="151.29254"
       y1="29.794262"
       x2="174.05838"
       y2="65.575829" /><linearGradient
       inkscape:collect="always"
       xlink:href="#linearGradient1910"
       id="linearGradient1929"
       gradientUnits="userSpaceOnUse"
       gradientTransform="matrix(0.66755317,0,0,1.562217,-54.000346,4.7403008)"
       x1="147.33380"
       y1="66.201660"
       x2="147.33380"
       y2="5.2269168" /><linearGradient
       inkscape:collect="always"
       xlink:href="#linearGradient1939"
       id="linearGradient1977"
       gradientUnits="userSpaceOnUse"
       gradientTransform="matrix(1.718143,0.000000,0.000000,0.233940,1.496018,65.51328)"
       x1="47.610882"
       y1="20.173775"
       x2="56.110985"
       y2="53.457325" /><linearGradient
       inkscape:collect="always"
       xlink:href="#linearGradient1902"
       id="linearGradient1978"
       gradientUnits="userSpaceOnUse"
       gradientTransform="matrix(1.587228,0.000000,0.000000,0.212498,1.496018,66.29516)"
       x1="59.364616"
       y1="40.894772"
       x2="59.436813"
       y2="19.193310" /><linearGradient
       inkscape:collect="always"
       xlink:href="#linearGradient1939"
       id="linearGradient1980"
       gradientUnits="userSpaceOnUse"
       gradientTransform="matrix(1.718143,0.000000,0.000000,0.240258,1.496018,63.59053)"
       x1="47.610882"
       y1="20.173775"
       x2="56.110985"
       y2="53.457325" /><linearGradient
       inkscape:collect="always"
       xlink:href="#linearGradient1902"
       id="linearGradient1981"
       gradientUnits="userSpaceOnUse"
       gradientTransform="matrix(1.587228,0.000000,0.000000,0.218238,1.496018,64.39353)"
       x1="59.364616"
       y1="40.894772"
       x2="59.436813"
       y2="19.193310" /><linearGradient
       inkscape:collect="always"
       xlink:href="#linearGradient1925"
       id="linearGradient2058"
       gradientTransform="matrix(0.684984,0.06661816,0,1.3874288,-50.529689,-1.2882983)"
       x1="106.47888"
       y1="3.3512630"
       x2="134.77087"
       y2="65.580826"
       gradientUnits="userSpaceOnUse" /><linearGradient
       inkscape:collect="always"
       xlink:href="#linearGradient5180"
       id="linearGradient5186"
       x1="-49.749758"
       y1="30.930241"
       x2="-25.413065"
       y2="30.930241"
       gradientUnits="userSpaceOnUse"
       gradientTransform="matrix(1.5866679,0,0,1.9516129,103.22697,-24.923247)" /><linearGradient
       inkscape:collect="always"
       xlink:href="#linearGradient4335"
       id="linearGradient4341"
       x1="96.967201"
       y1="120.0013"
       x2="78.128838"
       y2="31.376297"
       gradientUnits="userSpaceOnUse"
       gradientTransform="matrix(0.99491649,-0.79830744,0,1.0252039,-0.3669476,50.172529)" /><linearGradient
       inkscape:collect="always"
       id="linearGradient4335"><stop
         style="stop-color:#000000;stop-opacity:1;"
         offset="0"
         id="stop4337" /><stop
         style="stop-color:#cccccc;stop-opacity:1"
         offset="1"
         id="stop4339" /></linearGradient></defs><metadata
     id="metadata167"><rdf:RDF><cc:Work
         rdf:about=""><dc:format>image/svg+xml</dc:format><dc:type
           rdf:resource="http://purl.org/dc/dcmitype/StillImage" /><dc:title /></cc:Work></rdf:RDF></metadata><sodipodi:namedview
     id="base"
     pagecolor="#ffffff"
     bordercolor="#666666"
     borderopacity="1.0"
     inkscape:pageopacity="0.0"
     inkscape:pageshadow="2"
     inkscape:zoom="11.313708"
     inkscape:cx="67.043912"
     inkscape:cy="60.045374"
     inkscape:window-width="2560"
     inkscape:window-height="1378"
     inkscape:window-x="0"
     inkscape:window-y="0"
     inkscape:current-layer="g4315"
     showguides="true"
     inkscape:guide-bbox="true"
     showgrid="false"
     inkscape:window-maximized="1" /><g
     id="g4345"
     transform="matrix(1.2377733,0,0,0.94952568,-8.4597336,6.5389468)"><g
       id="g4456"
       transform="translate(1.6158048,-2.1063197)"><g
         id="g4293"
         transform="matrix(0.80790238,0,0,1.0531574,6.8346389,-6.8865402)"><g
           transform="matrix(1,0.09592386,0,1,0,-4.1557877)"
           id="g4315"><path
             style="opacity:1;fill:url(#linearGradient4341);fill-opacity:1;fill-rule:evenodd;stroke:#070707;stroke-width:1.01226199;stroke-linejoin:round;stroke-miterlimit:4;stroke-dasharray:none;stroke-dashoffset:0;stroke-opacity:0"
             d="m 71.993643,20.11359 25.48683,-20.45028649 0,86.16012849 -25.48683,32.325288 z"
             id="rect4333"
             inkscape:connector-curvature="0"
             sodipodi:nodetypes="ccccc" /><path
             style="opacity:1;fill:#999999;fill-opacity:1;fill-rule:evenodd;stroke:#070707;stroke-width:0.99999994;stroke-linejoin:round;stroke-miterlimit:4;stroke-dasharray:none;stroke-dashoffset:0;stroke-opacity:0"
             d="M 53.115237,2.4907505 97.484453,-0.28048109 71.926398,20.294621 17.353176,21.773213 Z"
             id="rect4346"
             inkscape:connector-curvature="0"
             sodipodi:nodetypes="ccccc" /></g></g><rect
         transform="matrix(0.99543081,0.09548557,0,1,0,0)"
         style="fill:url(#linearGradient1894);fill-opacity:1;stroke:url(#linearGradient1901);stroke-width:1.40521395;stroke-linecap:round;stroke-linejoin:round;stroke-miterlimit:4;stroke-dasharray:none;stroke-dashoffset:0;stroke-opacity:1"
         id="rect1269"
         width="43.023697"
         height="101.88646"
         x="22.01083"
         y="11.65086"
         ry="0"
         rx="0" /><rect
         transform="matrix(0.99543081,0.09548557,0,1,0,0)"
         style="fill:url(#linearGradient1928);fill-opacity:1;stroke:url(#linearGradient1929);stroke-width:0.76590562;stroke-linecap:round;stroke-linejoin:round;stroke-miterlimit:4;stroke-dashoffset:0;stroke-opacity:1"
         id="rect1905"
         width="41.851254"
         height="98.974815"
         x="22.597059"
         y="12.167039"
         ry="0"
         rx="0" /><path
         style="fill:url(#linearGradient2058);fill-opacity:1;fill-rule:evenodd;stroke:none;stroke-width:0.25pt;stroke-linecap:butt;stroke-linejoin:miter;stroke-opacity:1"
         d="m 27.105623,17.427923 c -2.31641,-0.225283 -4.175243,1.478565 -4.175243,3.827122 l 0,77.761778 c 24.343138,-0.0687 20.432509,-34.088055 40.330418,-34.544436 l 0,-39.295005 c 0,-2.348557 -1.85883,-4.413966 -4.17524,-4.639249 l -31.979935,-3.11021 z"
         id="path2052"
         inkscape:connector-curvature="0" /><rect
         style="opacity:1;fill:url(#linearGradient5186);fill-opacity:1;stroke:#000000;stroke-width:2.43476605;stroke-miterlimit:4;stroke-dasharray:none;stroke-opacity:1"
         id="rect5162"
         width="38.456181"
         height="44.190144"
         x="24.369661"
         y="13.345542"
         ry="5.8548384"
         rx="4.7600036"
         transform="matrix(0.99374762,0.11164977,0,1,0,0)" /></g><path
       style="fill:#000000"
       d="M 29.854001,49.894265 C 29.710599,49.63038 29.309691,48.306869 29.076825,47.328591 27.729039,41.666481 28.04363,36.3284 30.027392,31.198917 c 1.232065,-3.185795 3.8466,-6.558919 6.096335,-7.865148 2.767868,-1.607066 4.45303,-2.084658 7.247009,-2.053885 1.6124,0.01776 3.781547,0.512063 5.301161,1.208021 2.755593,1.262013 5.926218,3.939376 7.659289,6.467713 1.559664,2.275355 2.351533,3.754975 3.392861,6.339608 0.297027,0.73724 1.058038,3.423969 1.257587,4.439893 0.0823,0.418981 0.233188,1.190195 0.335309,1.713809 0.250626,1.285043 0.250626,6.922713 0,8.132502 -0.102121,0.492949 -0.253009,1.218855 -0.335309,1.613123 -0.08229,0.39427 -0.340657,1.332766 -0.574132,2.085549 L 59.983,54.648797 58.722852,54.459601 c -0.693081,-0.104056 -1.260147,-0.259591 -1.260147,-0.345628 0,-0.08604 0.08875,-0.384614 0.197217,-0.6635 0.913174,-2.347869 1.504229,-4.95433 1.504229,-6.633407 l 0,-0.777822 -1.098851,-0.218959 -1.098851,-0.21896 -0.04364,-0.691697 -0.04364,-0.691694 1.107046,0.112035 1.107046,0.112034 0.04457,-0.914553 c 0.02452,-0.503006 -0.02737,-1.300942 -0.115293,-1.77319 -0.312805,-1.680089 -0.459398,-2.387142 -0.574111,-2.76913 -0.06394,-0.212911 -0.194462,-0.701264 -0.290047,-1.085226 -0.09558,-0.383962 -0.275745,-0.889617 -0.400358,-1.123676 l -0.226566,-0.425564 -0.495185,0.29107 c -1.182748,0.695226 -1.411779,0.768718 -1.615081,0.518249 -0.234621,-0.289054 -0.369443,-0.89109 -0.245148,-1.094692 0.09312,-0.152541 0.522028,-0.42917 1.198243,-0.772823 0.60835,-0.309163 0.604577,-0.604525 -0.02239,-1.753467 -0.969192,-1.776071 -3.304897,-4.883552 -3.717199,-4.945453 -0.07002,-0.01055 -0.365846,0.485699 -0.657382,1.102694 -0.291538,0.616995 -0.582526,1.113933 -0.646644,1.104307 -0.198381,-0.02979 -0.815534,-0.709438 -0.815534,-0.898126 0,-0.09827 0.223316,-0.641849 0.496255,-1.207945 0.27294,-0.566096 0.496256,-1.064707 0.496256,-1.108022 0,-0.14318 -1.049584,-0.928448 -1.914127,-1.432096 -1.086072,-0.6327 -2.040408,-1.04214 -3.148928,-1.350987 l -0.880333,-0.245272 -0.04129,1.526962 -0.04129,1.526964 -0.496256,-0.0745 -0.496255,-0.0745 -0.07089,-1.489278 -0.0709,-1.489282 -0.921617,-0.08485 c -1.742782,-0.160458 -4.714325,0.602753 -4.91769,1.263059 -0.04389,0.142508 0.119474,0.706902 0.36303,1.25421 0.543013,1.220224 0.552968,1.565403 0.05181,1.796065 -0.358524,0.165014 -0.413602,0.13515 -0.707125,-0.38341 -0.175075,-0.3093 -0.318951,-0.645631 -0.319727,-0.747404 -7.01e-4,-0.101761 -0.152743,-0.454321 -0.337706,-0.78344 l -0.336299,-0.598401 -0.574234,0.409155 c -1.181571,0.841898 -3.714313,3.950004 -3.714313,4.558094 0,0.07435 0.414727,0.513617 0.921616,0.97615 0.506891,0.462533 0.921618,0.909266 0.921618,0.99274 0,0.357681 -0.344105,1.041651 -0.511417,1.016532 -0.100279,-0.01506 -0.563354,-0.375688 -1.029057,-0.801405 -0.465701,-0.425716 -0.873817,-0.778095 -0.906922,-0.783066 -0.05483,-0.0082 -0.529806,1.136997 -0.829874,2.000944 -0.40998,1.180405 -0.939917,4.871684 -0.780558,5.436963 0.05186,0.183955 0.407262,0.329567 1.179851,0.483393 l 1.105637,0.220143 0,0.646901 0,0.646903 -1.187471,-0.124227 -1.187473,-0.124227 0.100193,1.34721 c 0.15475,2.080817 0.629887,4.260372 1.342227,6.157085 0.219218,0.583699 0.364522,1.100548 0.322899,1.148561 -0.163831,0.188966 -2.405183,-0.264326 -2.540783,-0.513853 z m 14.376621,-0.879617 c -0.608748,-0.220619 -1.464393,-1.5675 -1.581627,-2.489659 -0.248965,-1.958333 0.764983,-3.605305 2.09651,-3.405393 0.300131,0.04506 0.74267,-0.204421 1.502429,-0.846988 4.140946,-3.502223 5.142481,-4.282001 5.337134,-4.155403 0.60072,0.390686 0.525315,0.537144 -3.508256,6.814055 -0.580434,0.903253 -0.822786,1.44375 -0.822786,1.83499 0,1.771154 -1.422115,2.828731 -3.023404,2.248398 z"
       id="path5137"
       inkscape:connector-curvature="0" /></g></svg>