<?xml version="1.0" encoding="utf-8"?>
<!-- Generator: Adobe Illustrator 21.1.0, SVG Export Plug-In . SVG Version: 6.00 Build 0)  -->
<svg version="1.1" id="Calque_1" xmlns="http://www.w3.org/2000/svg" xmlns:xlink="http://www.w3.org/1999/xlink" x="0px" y="0px"
	 viewBox="0 0 2140 432" style="enable-background:new 0 0 2140 432;" xml:space="preserve">
<style type="text/css">
	.st0{fill:#FFFFFF;}
	.st1{fill:#FF6600;}
</style>
<g>
	<g>
		<path class="st0" d="M111.7,288.6c9.7,5.9,29.8,12.8,45.4,12.8c15.9,0,22.5-5.5,22.5-14.2c0-8.7-5.2-12.8-25-19.4
			c-35-11.8-48.5-30.9-48.2-51c0-31.5,27-55.5,69-55.5c19.8,0,37.4,4.5,47.8,9.7l-9.4,36.4c-7.6-4.2-22.2-9.7-36.7-9.7
			c-12.8,0-20.1,5.2-20.1,13.9c0,8,6.6,12.1,27.4,19.4c32.2,11.1,45.8,27.4,46.1,52.3c0,31.5-25,54.8-73.5,54.8
			c-22.2,0-41.9-4.9-54.8-11.8L111.7,288.6z"/>
		<path class="st0" d="M416.1,248c0,62-44,90.5-89.4,90.5c-49.6,0-87.7-32.6-87.7-87.4c0-54.8,36.1-89.8,90.5-89.8
			C381.4,161.4,416.1,197.1,416.1,248z M293.4,249.8c0,29.1,12.1,51,34.7,51c20.5,0,33.6-20.5,33.6-51c0-25.3-9.7-51-33.6-51
			C302.7,198.8,293.4,224.8,293.4,249.8z"/>
		<path class="st0" d="M434.8,219.3c0-21.1-0.7-39.2-1.4-54.1h45.8l2.4,23.2h1c6.9-10.7,24.3-27,52.3-27c34.7,0,60.7,22.9,60.7,72.8
			v100.5h-52.7v-93.9c0-21.8-7.6-36.7-26.7-36.7c-14.6,0-23.2,10.1-26.7,19.8c-1.4,3.1-2.1,8.3-2.1,13.2v97.8h-52.7V219.3z"/>
		<path class="st0" d="M720.4,334.7l-3.1-17h-1c-11.1,13.5-28.4,20.8-48.5,20.8c-34.3,0-54.8-25-54.8-52c0-44,39.5-65.2,99.5-64.8
			v-2.4c0-9-4.9-21.8-30.9-21.8c-17.3,0-35.7,5.9-46.8,12.8l-9.7-34c11.8-6.6,35-14.9,65.9-14.9c56.5,0,74.5,33.3,74.5,73.1v58.9
			c0,16.3,0.7,31.9,2.4,41.2H720.4z M714.2,254.6c-27.7-0.3-49.2,6.2-49.2,26.7c0,13.5,9,20.1,20.8,20.1c13.2,0,23.9-8.7,27.4-19.4
			c0.7-2.8,1-5.9,1-9V254.6z"/>
		<path class="st0" d="M793.2,221c0-25-0.7-41.3-1.4-55.8h45.4l1.7,31.2h1.4c8.7-24.6,29.5-35,45.8-35c4.9,0,7.3,0,11.1,0.7v49.6
			c-3.8-0.7-8.3-1.4-14.2-1.4c-19.4,0-32.6,10.4-36.1,26.7c-0.7,3.5-1,7.6-1,11.8v86h-52.7V221z"/>
	</g>
	<g>
		<path class="st0" d="M1041.7,328.5c-8,4.2-25.7,9.7-48.2,9.7c-50.6,0-83.5-34.3-83.5-85.6c0-51.7,35.4-89.1,90.1-89.1
			c18,0,34,4.5,42.3,8.7l-6.9,23.6c-7.3-4.2-18.7-8-35.4-8c-38.5,0-59.3,28.4-59.3,63.4c0,38.8,25,62.7,58.2,62.7
			c17.3,0,28.8-4.5,37.4-8.3L1041.7,328.5z"/>
		<path class="st0" d="M1063.5,88.6h30.5v246.1h-30.5V88.6z"/>
		<path class="st0" d="M1283.3,249.4c0,62-43,89.1-83.5,89.1c-45.4,0-80.4-33.3-80.4-86.3c0-56.2,36.7-89.1,83.2-89.1
			C1250.7,163.1,1283.3,198.1,1283.3,249.4z M1150.2,251.2c0,36.7,21.1,64.5,51,64.5c29.1,0,51-27.4,51-65.2
			c0-28.4-14.2-64.5-50.3-64.5C1165.8,186,1150.2,219.3,1150.2,251.2z"/>
		<path class="st0" d="M1448.3,289c0,17.3,0.3,32.6,1.4,45.8h-27l-1.7-27.4h-0.7c-8,13.5-25.7,31.2-55.5,31.2
			c-26.3,0-57.9-14.6-57.9-73.5v-98.1h30.5v92.9c0,31.9,9.7,53.4,37.4,53.4c20.5,0,34.7-14.2,40.2-27.7c1.7-4.5,2.8-10.1,2.8-15.6
			v-103h30.5V289z"/>
		<path class="st0" d="M1629.9,88.6v202.8c0,14.9,0.3,31.9,1.4,43.3h-27.4l-1.4-29.1h-0.7c-9.4,18.7-29.8,32.9-57.2,32.9
			c-40.6,0-71.8-34.3-71.8-85.3c-0.3-55.8,34.3-90.1,75.2-90.1c25.7,0,43,12.1,50.6,25.7h0.7V88.6H1629.9z M1599.4,235.2
			c0-3.8-0.3-9-1.4-12.8c-4.5-19.4-21.1-35.4-44-35.4c-31.5,0-50.3,27.7-50.3,64.8c0,34,16.6,62,49.6,62c20.5,0,39.2-13.5,44.7-36.4
			c1-4.2,1.4-8.3,1.4-13.2V235.2z"/>
	</g>
</g>
<path class="st1" d="M2048.7,196c-11.8-14.3-27.5-24.9-45.1-30.3c0-0.4,0-0.7,0-1.1c0-51.9-42.2-94.2-94.2-94.2
	s-94.2,42.2-94.2,94.2c0,0.4,0,0.8,0,1.3c-38.1,12-65.9,47.7-65.9,89.8c0,51.9,42.2,94.2,94.2,94.2c25,0,48.6-9.8,66.2-27.1
	c17,16.8,40.4,27.1,66.1,27.1c51.9,0,94.2-42.2,94.2-94.2C2070,234,2062.4,212.8,2048.7,196z M1975.8,326.1
	c-38.8,0-70.4-31.6-70.4-70.4c0-6.5-5.3-11.9-11.9-11.9s-11.9,5.3-11.9,11.9c0,17.6,4.9,34.1,13.3,48.2
	c-13.3,14.2-31.7,22.3-51.4,22.3c-38.8,0-70.4-31.6-70.4-70.4s31.6-70.4,70.4-70.4c8.4,0,16.6,1.5,24.4,4.3c0.1,0,0.2,0.1,0.3,0.1
	c2.7,0.9,6.5,2.7,7.7,3.7c5,4.3,12.5,3.7,16.7-1.3c4.3-5,3.7-12.5-1.3-16.7c-5.2-4.4-13.3-7.4-15.3-8.1c-10.4-3.8-21.3-5.7-32.4-5.7
	c-1.5,0-3,0-4.5,0.1c1.6-37.5,32.5-67.5,70.4-67.5c38.8,0,70.4,31.6,70.4,70.4c0,22.7-11.1,44.2-29.6,57.4
	c-5.3,3.8-6.6,11.2-2.8,16.5c2.3,3.2,6,5,9.7,5c2.4,0,4.8-0.7,6.9-2.2c17.8-12.7,30.5-31.1,36.2-51.7c27.2,10.1,46.1,36.4,46.1,66.1
	C2046.3,294.5,2014.7,326.1,1975.8,326.1z"/>
</svg>
