<?xml version="1.0" encoding="UTF-8" standalone="no"?>
<svg
   xmlns:dc="http://purl.org/dc/elements/1.1/"
   xmlns:cc="http://creativecommons.org/ns#"
   xmlns:rdf="http://www.w3.org/1999/02/22-rdf-syntax-ns#"
   xmlns:svg="http://www.w3.org/2000/svg"
   xmlns="http://www.w3.org/2000/svg"
   xmlns:xlink="http://www.w3.org/1999/xlink"
   xmlns:sodipodi="http://sodipodi.sourceforge.net/DTD/sodipodi-0.dtd"
   xmlns:inkscape="http://www.inkscape.org/namespaces/inkscape"
   width="119"
   height="123"
   viewBox="0.023 -0.342 119 123"
   overflow="visible"
   enable-background="new 0.023 -0.342 119 123"
   xml:space="preserve"
   id="svg1"
   sodipodi:version="0.32"
   inkscape:version="0.91 r13725"
   sodipodi:docname="server-config.svg"
   inkscape:export-filename="/home/arcisz/Desktop/Projekty/mycomputer.png"
   inkscape:export-xdpi="96.809998"
   inkscape:export-ydpi="96.809998"
   version="1.1"><defs
     id="defs168"><inkscape:perspective
       sodipodi:type="inkscape:persp3d"
       inkscape:vp_x="-251.38645 : 129.36979 : 1"
       inkscape:vp_y="0 : 3956.0301 : 0"
       inkscape:vp_z="160.98446 : 158.01236 : 1"
       inkscape:persp3d-origin="-53.018577 : -162.42608 : 1"
       id="perspective4220" /><linearGradient
       id="linearGradient2049"><stop
         offset="0.033700000"
         style="stop-color:#00ff00;stop-opacity:1.0000000;"
         id="stop2050" /><stop
         offset="1.0000000"
         style="stop-color:#009700;stop-opacity:1.0000000;"
         id="stop2051" /></linearGradient><linearGradient
       id="linearGradient2020"><stop
         offset="0.0000000"
         style="stop-color:#9e9e9e;stop-opacity:1.0000000;"
         id="stop2022" /><stop
         offset="1.0000000"
         style="stop-color:#616161;stop-opacity:1.0000000;"
         id="stop2021" /></linearGradient><linearGradient
       id="linearGradient2017"><stop
         offset="0.0000000"
         style="stop-color:#9e9e9e;stop-opacity:1.0000000;"
         id="stop2019" /><stop
         offset="1.0000000"
         style="stop-color:#616161;stop-opacity:1.0000000;"
         id="stop2018" /></linearGradient><linearGradient
       id="linearGradient2001"><stop
         offset="0.033700000"
         style="stop-color:#ffffff;stop-opacity:1.0000000;"
         id="stop2003" /><stop
         offset="1.0000000"
         style="stop-color:#878787;stop-opacity:1.0000000;"
         id="stop2002" /></linearGradient><linearGradient
       id="linearGradient1987"><stop
         offset="0.033700000"
         style="stop-color:#ffffff;stop-opacity:1.0000000;"
         id="stop1989" /><stop
         offset="1.0000000"
         style="stop-color:#b2b2b2;stop-opacity:1.0000000;"
         id="stop1988" /></linearGradient><linearGradient
       id="linearGradient1939"><stop
         offset="0.0000000"
         style="stop-color:#ffffff;stop-opacity:1.0000000;"
         id="stop1941" /><stop
         offset="1.0000000"
         style="stop-color:#cfcfcf;stop-opacity:1.0000000;"
         id="stop1940" /></linearGradient><linearGradient
       id="linearGradient1925"><stop
         offset="0.0000000"
         style="stop-color:#ffffff;stop-opacity:1.0000000;"
         id="stop1927" /><stop
         offset="1.0000000"
         style="stop-color:#ffffff;stop-opacity:0.0000000;"
         id="stop1926" /></linearGradient><linearGradient
       id="linearGradient1910"><stop
         offset="0.033700000"
         style="stop-color:#ffffff;stop-opacity:1.0000000;"
         id="stop1912" /><stop
         offset="1.0000000"
         style="stop-color:#b2b2b2;stop-opacity:1.0000000;"
         id="stop1911" /></linearGradient><linearGradient
       id="linearGradient1902"><stop
         offset="0.0000000"
         style="stop-color:#9e9e9e;stop-opacity:1.0000000;"
         id="stop1904" /><stop
         offset="1.0000000"
         style="stop-color:#616161;stop-opacity:1.0000000;"
         id="stop1903" /></linearGradient><linearGradient
       id="linearGradient1895"><stop
         offset="0.0000000"
         style="stop-color:#cccccc;stop-opacity:1.0000000;"
         id="stop1897" /><stop
         offset="1.0000000"
         style="stop-color:#616161;stop-opacity:1.0000000;"
         id="stop1896" /></linearGradient><linearGradient
       inkscape:collect="always"
       xlink:href="#linearGradient1902"
       id="linearGradient1894"
       gradientTransform="matrix(0.6573817,0,0,1.528169,-53.631615,0.7939598)"
       x1="167.02687"
       y1="72.892693"
       x2="167.02687"
       y2="7.5409803"
       gradientUnits="userSpaceOnUse" /><linearGradient
       inkscape:collect="always"
       xlink:href="#linearGradient1902"
       id="linearGradient1901"
       gradientTransform="matrix(0.6573817,0,0,1.528169,-52.12873,4.3567078)"
       x1="131.02010"
       y1="69.246124"
       x2="131.02010"
       y2="6.2129593"
       gradientUnits="userSpaceOnUse" /><linearGradient
       inkscape:collect="always"
       xlink:href="#linearGradient1925"
       id="linearGradient1924"
       gradientTransform="scale(0.739360,1.352522)"
       x1="108.45679"
       y1="33.612988"
       x2="134.87514"
       y2="60.464489"
       gradientUnits="userSpaceOnUse" /><linearGradient
       inkscape:collect="always"
       xlink:href="#linearGradient1902"
       id="linearGradient1928"
       gradientUnits="userSpaceOnUse"
       gradientTransform="matrix(0.68373712,0,0,1.587269,-58.229781,3.4662088)"
       x1="151.29254"
       y1="29.794262"
       x2="174.05838"
       y2="65.575829" /><linearGradient
       inkscape:collect="always"
       xlink:href="#linearGradient1910"
       id="linearGradient1929"
       gradientUnits="userSpaceOnUse"
       gradientTransform="matrix(0.66755317,0,0,1.562217,-54.000346,4.7403008)"
       x1="147.33380"
       y1="66.201660"
       x2="147.33380"
       y2="5.2269168" /><linearGradient
       inkscape:collect="always"
       xlink:href="#linearGradient1939"
       id="linearGradient1977"
       gradientUnits="userSpaceOnUse"
       gradientTransform="matrix(1.718143,0.000000,0.000000,0.233940,1.496018,65.51328)"
       x1="47.610882"
       y1="20.173775"
       x2="56.110985"
       y2="53.457325" /><linearGradient
       inkscape:collect="always"
       xlink:href="#linearGradient1902"
       id="linearGradient1978"
       gradientUnits="userSpaceOnUse"
       gradientTransform="matrix(1.587228,0.000000,0.000000,0.212498,1.496018,66.29516)"
       x1="59.364616"
       y1="40.894772"
       x2="59.436813"
       y2="19.193310" /><linearGradient
       inkscape:collect="always"
       xlink:href="#linearGradient1939"
       id="linearGradient1980"
       gradientUnits="userSpaceOnUse"
       gradientTransform="matrix(1.718143,0.000000,0.000000,0.240258,1.496018,63.59053)"
       x1="47.610882"
       y1="20.173775"
       x2="56.110985"
       y2="53.457325" /><linearGradient
       inkscape:collect="always"
       xlink:href="#linearGradient1902"
       id="linearGradient1981"
       gradientUnits="userSpaceOnUse"
       gradientTransform="matrix(1.587228,0.000000,0.000000,0.218238,1.496018,64.39353)"
       x1="59.364616"
       y1="40.894772"
       x2="59.436813"
       y2="19.193310" /><linearGradient
       inkscape:collect="always"
       xlink:href="#linearGradient1925"
       id="linearGradient2058"
       gradientTransform="matrix(0.684984,0.06570631,0,1.368438,-50.529689,-1.032389)"
       x1="106.47888"
       y1="3.3512630"
       x2="134.77087"
       y2="65.580826"
       gradientUnits="userSpaceOnUse" /><filter
       inkscape:collect="always"
       id="filter3525"><feGaussianBlur
         inkscape:collect="always"
         stdDeviation="3.1093332"
         id="feGaussianBlur3527" /></filter><linearGradient
       inkscape:collect="always"
       xlink:href="#linearGradient3299"
       id="linearGradient3056"
       gradientUnits="userSpaceOnUse"
       gradientTransform="translate(3.6221094e-4,0)"
       x1="327.14285"
       y1="571.29077"
       x2="327.14285"
       y2="481.29074" /><linearGradient
       id="linearGradient3299"><stop
         style="stop-color:#6a7390;stop-opacity:1"
         offset="0"
         id="stop3301" /><stop
         style="stop-color:#eaebef;stop-opacity:1"
         offset="1"
         id="stop3303" /></linearGradient><linearGradient
       inkscape:collect="always"
       xlink:href="#linearGradient3299"
       id="linearGradient3058"
       gradientUnits="userSpaceOnUse"
       x1="236.14679"
       y1="509.08899"
       x2="256.25"
       y2="553.19183" /><linearGradient
       inkscape:collect="always"
       xlink:href="#linearGradient3299"
       id="linearGradient3060"
       gradientUnits="userSpaceOnUse"
       x1="251.46344"
       y1="510.37042"
       x2="261.67477"
       y2="558.29987" /><linearGradient
       inkscape:collect="always"
       xlink:href="#linearGradient3299"
       id="linearGradient3062"
       gradientUnits="userSpaceOnUse"
       x1="170.4201"
       y1="513.32434"
       x2="170.4201"
       y2="577.06873" /><linearGradient
       inkscape:collect="always"
       xlink:href="#linearGradient1925"
       id="linearGradient3064"
       gradientUnits="userSpaceOnUse"
       x1="170.4201"
       y1="501.71945"
       x2="170.4201"
       y2="518.36169" /><linearGradient
       inkscape:collect="always"
       xlink:href="#linearGradient3812"
       id="linearGradient3066"
       gradientUnits="userSpaceOnUse"
       x1="377.50214"
       y1="507.22119"
       x2="377.50214"
       y2="534.16211" /><linearGradient
       id="linearGradient3812"><stop
         style="stop-color:#2e2e2e;stop-opacity:1"
         offset="0"
         id="stop3814" /><stop
         style="stop-color:#000000;stop-opacity:0"
         offset="1"
         id="stop3816" /></linearGradient><filter
       inkscape:collect="always"
       id="filter3808"><feGaussianBlur
         inkscape:collect="always"
         stdDeviation="1.8874999"
         id="feGaussianBlur3810" /></filter><linearGradient
       inkscape:collect="always"
       xlink:href="#linearGradient1925"
       id="linearGradient3068"
       gradientUnits="userSpaceOnUse"
       x1="454.52679"
       y1="481.29074"
       x2="330.00446"
       y2="481.29074" /><linearGradient
       inkscape:collect="always"
       xlink:href="#linearGradient1925"
       id="linearGradient3078"
       gradientUnits="userSpaceOnUse"
       x1="170.4201"
       y1="501.71945"
       x2="170.4201"
       y2="518.36169" /><linearGradient
       inkscape:collect="always"
       xlink:href="#linearGradient1925"
       id="linearGradient3082"
       gradientUnits="userSpaceOnUse"
       x1="454.52679"
       y1="481.29074"
       x2="330.00446"
       y2="481.29074" /><linearGradient
       inkscape:collect="always"
       xlink:href="#linearGradient3299"
       id="linearGradient5316"
       gradientUnits="userSpaceOnUse"
       gradientTransform="translate(3.6221094e-4,0)"
       x1="327.14285"
       y1="571.29077"
       x2="327.14285"
       y2="481.29074" /><linearGradient
       inkscape:collect="always"
       xlink:href="#linearGradient3299"
       id="linearGradient5318"
       gradientUnits="userSpaceOnUse"
       x1="236.14679"
       y1="509.08899"
       x2="256.25"
       y2="553.19183" /><linearGradient
       inkscape:collect="always"
       xlink:href="#linearGradient3299"
       id="linearGradient5320"
       gradientUnits="userSpaceOnUse"
       x1="251.46344"
       y1="510.37042"
       x2="261.67477"
       y2="558.29987" /><linearGradient
       inkscape:collect="always"
       xlink:href="#linearGradient3299"
       id="linearGradient5322"
       gradientUnits="userSpaceOnUse"
       x1="170.4201"
       y1="513.32434"
       x2="170.4201"
       y2="577.06873" /><linearGradient
       inkscape:collect="always"
       xlink:href="#linearGradient3812"
       id="linearGradient5324"
       gradientUnits="userSpaceOnUse"
       x1="377.50214"
       y1="507.22119"
       x2="377.50214"
       y2="534.16211" /><linearGradient
       inkscape:collect="always"
       xlink:href="#linearGradient5180"
       id="linearGradient5186"
       x1="-49.74976"
       y1="30.930241"
       x2="-25.413065"
       y2="30.930241"
       gradientUnits="userSpaceOnUse"
       gradientTransform="matrix(1.586668,0,0,1.9516129,104.75425,-26.516231)" /><linearGradient
       inkscape:collect="always"
       id="linearGradient5180"><stop
         style="stop-color:#f2f2f2;stop-opacity:1"
         offset="0"
         id="stop5182" /><stop
         style="stop-color:#ffffff;stop-opacity:1"
         offset="1"
         id="stop5184" /></linearGradient><linearGradient
       inkscape:collect="always"
       xlink:href="#linearGradient4335"
       id="linearGradient4341"
       x1="96.967201"
       y1="120.0013"
       x2="78.128838"
       y2="31.376297"
       gradientUnits="userSpaceOnUse"
       gradientTransform="matrix(0.99491649,-0.79830744,0,1.0252039,0.05930548,49.872202)" /><linearGradient
       inkscape:collect="always"
       id="linearGradient4335"><stop
         style="stop-color:#000000;stop-opacity:1;"
         offset="0"
         id="stop4337" /><stop
         style="stop-color:#cccccc;stop-opacity:1"
         offset="1"
         id="stop4339" /></linearGradient></defs><metadata
     id="metadata167"><rdf:RDF><cc:Work
         rdf:about=""><dc:format>image/svg+xml</dc:format><dc:type
           rdf:resource="http://purl.org/dc/dcmitype/StillImage" /><dc:title /></cc:Work></rdf:RDF></metadata><sodipodi:namedview
     id="base"
     pagecolor="#ffffff"
     bordercolor="#666666"
     borderopacity="1.0"
     inkscape:pageopacity="0.0"
     inkscape:pageshadow="2"
     inkscape:zoom="7.9999999"
     inkscape:cx="58.793244"
     inkscape:cy="74.921292"
     inkscape:window-width="2560"
     inkscape:window-height="1378"
     inkscape:window-x="0"
     inkscape:window-y="0"
     inkscape:current-layer="g4315"
     showguides="true"
     inkscape:guide-bbox="true"
     showgrid="false"
     inkscape:window-maximized="1" /><g
     id="g4345"
     transform="matrix(1.2377733,0,0,0.94952568,-8.4597336,6.5389468)"><g
       id="g4456"
       transform="translate(1.7586231,-2.1063197)"><g
         id="g4293"
         transform="matrix(0.80790238,0,0,1.0531574,6.8346389,-6.8865402)"><g
           transform="matrix(1,0.09592386,0,1,0,-4.1557877)"
           id="g4315"><path
             style="opacity:1;fill:url(#linearGradient4341);fill-opacity:1;fill-rule:evenodd;stroke:#070707;stroke-width:1.01226199;stroke-linejoin:round;stroke-miterlimit:4;stroke-dasharray:none;stroke-dashoffset:0;stroke-opacity:0"
             d="m 72.419899,19.813263 25.48683,-20.45028685 0,86.16012885 -25.48683,32.325285 z"
             id="rect4333"
             inkscape:connector-curvature="0"
             sodipodi:nodetypes="ccccc" /><path
             style="opacity:1;fill:#999999;fill-opacity:1;fill-rule:evenodd;stroke:#070707;stroke-width:0.99999994;stroke-linejoin:round;stroke-miterlimit:4;stroke-dasharray:none;stroke-dashoffset:0;stroke-opacity:0"
             d="M 53.541491,2.1904231 97.910709,-0.58080885 72.352649,19.994294 17.779429,21.472887 Z"
             id="rect4346"
             inkscape:connector-curvature="0"
             sodipodi:nodetypes="ccccc" /></g></g><rect
         transform="matrix(0.99543081,0.09548557,0,1,0,0)"
         style="fill:url(#linearGradient1894);fill-opacity:1;stroke:url(#linearGradient1901);stroke-width:1.40521395;stroke-linecap:round;stroke-linejoin:round;stroke-miterlimit:4;stroke-dasharray:none;stroke-dashoffset:0;stroke-opacity:1"
         id="rect1269"
         width="43.023697"
         height="101.88646"
         x="22.01083"
         y="11.65086"
         ry="0"
         rx="0" /><rect
         transform="matrix(0.99543081,0.09548557,0,1,0,0)"
         style="fill:url(#linearGradient1928);fill-opacity:1;stroke:url(#linearGradient1929);stroke-width:0.76590562;stroke-linecap:round;stroke-linejoin:round;stroke-miterlimit:4;stroke-dashoffset:0;stroke-opacity:1"
         id="rect1905"
         width="41.851254"
         height="98.974815"
         x="22.597059"
         y="12.167039"
         ry="0"
         rx="0" /><path
         style="fill:url(#linearGradient2058);fill-opacity:1;fill-rule:evenodd;stroke:none;stroke-width:0.25pt;stroke-linecap:butt;stroke-linejoin:miter;stroke-opacity:1"
         d="m 27.105623,17.427649 c -2.31641,-0.222199 -4.175243,1.458327 -4.175243,3.774738 l 0,76.697394 C 47.273518,97.832025 43.362889,64.278315 63.260798,63.82818 l 0,-38.757144 c 0,-2.316411 -1.85883,-4.353549 -4.17524,-4.575748 L 27.105623,17.427649 Z"
         id="path2052"
         inkscape:connector-curvature="0" /></g><rect
       style="opacity:1;fill:url(#linearGradient5186);fill-opacity:1;stroke:#000000;stroke-width:2.43476629;stroke-miterlimit:4;stroke-dasharray:none;stroke-opacity:1"
       id="rect5162"
       width="38.456181"
       height="44.190144"
       x="25.89694"
       y="11.75256"
       ry="5.8548384"
       rx="4.7600036"
       transform="matrix(0.99374762,0.11164976,0,1,0,0)" /><g
       id="g3388"
       transform="matrix(0.2375839,0,0,0.30970728,-49.098852,-129.34288)"><g
         id="g3313"><path
           inkscape:connector-curvature="0"
           style="fill:#000000;fill-opacity:1;stroke:none;filter:url(#filter3525)"
           d="m 369.21912,481.71875 -2.15625,6.59375 0,0.1875 c -3.34544,0.43847 -6.54858,1.28098 -9.5625,2.53125 l -0.0625,-0.125 -5.1875,-4.65625 -4.875,2.8125 1.40625,6.8125 0.0937,0.15625 c -2.62211,2.01686 -4.95059,4.37894 -6.96875,7 l -0.15625,-0.0937 -6.8125,-1.4375 -2.8125,4.875 4.625,5.1875 0.15625,0.0625 c -1.2486,3.00951 -2.12326,6.22232 -2.5625,9.5625 l -0.15625,0 -6.625,2.15625 0,5.65625 6.625,2.15625 0.15625,0 c 0.43848,3.34664 1.31166,6.54761 2.5625,9.5625 l -0.15625,0.0937 -4.625,5.15625 2.8125,4.90625 6.8125,-1.4375 0.125,-0.0937 c 2.02078,2.62721 4.37279,4.97922 7,7 l -0.0937,0.15625 -1.40625,6.78125 4.875,2.8125 5.1875,-4.625 0.0937,-0.15625 c 3.00659,1.24468 6.19515,2.12525 9.53125,2.5625 l 0,0.1875 2.15625,6.59375 5.65625,0 2.15625,-6.59375 0,-0.1875 c 3.3361,-0.43725 6.52466,-1.31782 9.53125,-2.5625 l 0.0937,0.15625 5.1875,4.625 4.875,-2.8125 -1.40625,-6.78125 -0.0937,-0.15625 c 2.62721,-2.02078 4.97922,-4.37279 7,-7 l 0.125,0.0937 6.8125,1.4375 2.8125,-4.90625 -4.625,-5.15625 -0.15625,-0.0937 c 1.25084,-3.01489 2.12402,-6.21586 2.5625,-9.5625 l 0.15625,0 6.625,-2.15625 0,-5.65625 -6.625,-2.15625 -0.15625,0 c -0.43925,-3.34018 -1.3139,-6.55299 -2.5625,-9.5625 l 0.15625,-0.0625 4.625,-5.1875 -2.8125,-4.875 -6.8125,1.4375 -0.15625,0.0937 c -2.01816,-2.62106 -4.34664,-4.98314 -6.96875,-7 l 0.0937,-0.15625 1.40625,-6.8125 -4.875,-2.8125 -5.1875,4.65625 -0.0625,0.125 c -3.01392,-1.25027 -6.21706,-2.09278 -9.5625,-2.53125 l 0,-0.1875 -2.15625,-6.59375 -5.65625,0 z m 2.84375,10.71875 c 18.62999,10e-6 33.75,15.12001 33.75,33.75 1e-5,18.62998 -15.12,33.75 -33.75,33.75 -18.63002,-2e-5 -33.75,-15.12 -33.75,-33.75 0,-18.63002 15.12,-33.75 33.75,-33.75 z"
           id="path3495" /><path
           inkscape:connector-curvature="0"
           id="path2479"
           d="m 369.21912,481.71875 -2.15625,6.59375 0,0.1875 c -3.34544,0.43847 -6.54858,1.28098 -9.5625,2.53125 l -0.0625,-0.125 -5.1875,-4.65625 -4.875,2.8125 1.40625,6.8125 0.0937,0.15625 c -2.62211,2.01686 -4.95059,4.37894 -6.96875,7 l -0.15625,-0.0937 -6.8125,-1.4375 -2.8125,4.875 4.625,5.1875 0.15625,0.0625 c -1.2486,3.00951 -2.12326,6.22232 -2.5625,9.5625 l -0.15625,0 -6.625,2.15625 0,5.65625 6.625,2.15625 0.15625,0 c 0.43848,3.34664 1.31166,6.54761 2.5625,9.5625 l -0.15625,0.0937 -4.625,5.15625 2.8125,4.90625 6.8125,-1.4375 0.125,-0.0937 c 2.02078,2.62721 4.37279,4.97922 7,7 l -0.0937,0.15625 -1.40625,6.78125 4.875,2.8125 5.1875,-4.625 0.0937,-0.15625 c 3.00659,1.24468 6.19515,2.12525 9.53125,2.5625 l 0,0.1875 2.15625,6.59375 5.65625,0 2.15625,-6.59375 0,-0.1875 c 3.3361,-0.43725 6.52466,-1.31782 9.53125,-2.5625 l 0.0937,0.15625 5.1875,4.625 4.875,-2.8125 -1.40625,-6.78125 -0.0937,-0.15625 c 2.62721,-2.02078 4.97922,-4.37279 7,-7 l 0.125,0.0937 6.8125,1.4375 2.8125,-4.90625 -4.625,-5.15625 -0.15625,-0.0937 c 1.25084,-3.01489 2.12402,-6.21586 2.5625,-9.5625 l 0.15625,0 6.625,-2.15625 0,-5.65625 -6.625,-2.15625 -0.15625,0 c -0.43925,-3.34018 -1.3139,-6.55299 -2.5625,-9.5625 l 0.15625,-0.0625 4.625,-5.1875 -2.8125,-4.875 -6.8125,1.4375 -0.15625,0.0937 c -2.01816,-2.62106 -4.34664,-4.98314 -6.96875,-7 l 0.0937,-0.15625 1.40625,-6.8125 -4.875,-2.8125 -5.1875,4.65625 -0.0625,0.125 c -3.01392,-1.25027 -6.21706,-2.09278 -9.5625,-2.53125 l 0,-0.1875 -2.15625,-6.59375 -5.65625,0 z m 2.84375,10.71875 c 18.62999,10e-6 33.75,15.12001 33.75,33.75 1e-5,18.62998 -15.12,33.75 -33.75,33.75 -18.63002,-2e-5 -33.75,-15.12 -33.75,-33.75 0,-18.63002 15.12,-33.75 33.75,-33.75 z"
           style="fill:url(#linearGradient5316);fill-opacity:1;stroke:none" /><circle
           r="26.964285"
           cy="531.11218"
           cx="256.25"
           style="fill:url(#linearGradient5318);fill-opacity:1;stroke:none"
           id="path3331"
           transform="matrix(1.2649007,0,0,1.2649007,47.916443,-145.62307)" /><circle
           r="26.964285"
           cy="531.11218"
           cx="256.25"
           transform="matrix(1.1192053,0,0,1.1192053,85.250881,-68.242483)"
           id="path3267"
           style="fill:url(#linearGradient5320);fill-opacity:1;stroke:none" /><g
           id="g3627"><circle
             r="26.964285"
             cy="531.11218"
             cx="256.25"
             style="fill:url(#linearGradient5322);fill-opacity:1;stroke:none"
             id="path3281"
             transform="matrix(0.5231788,0,0,0.5231788,237.98267,248.31446)" /><circle
             r="26.964285"
             cy="531.11218"
             cx="256.25"
             transform="matrix(0.5231788,0,0,0.5231788,237.98267,248.31446)"
             id="path3557"
             style="fill:url(#linearGradient3064);fill-opacity:1;stroke:none" /></g><circle
           r="26.964285"
           cy="531.11218"
           cx="256.25"
           style="fill:#ffffff;fill-opacity:1;stroke:none"
           id="path3279"
           transform="matrix(0.3512979,0,0,0.3512979,282.02715,339.60253)" /><circle
           r="26.964285"
           cy="531.11218"
           cx="256.25"
           transform="matrix(0.3512979,0,0,0.3512979,282.02715,339.60253)"
           id="path3631"
           style="fill:#ffffff;fill-opacity:1;stroke:none" /><circle
           r="26.964285"
           cy="531.11218"
           cx="256.25"
           style="fill:#ffffff;fill-opacity:1;stroke:none"
           id="path3652"
           transform="matrix(0.3512979,0,0,0.3512979,282.02715,339.60253)" /><g
           id="g3827"
           transform="translate(87.500004,0)"><path
             inkscape:connector-curvature="0"
             id="path3802"
             d="m 283.21428,531.11218 c 0,14.88429 -12.07999,26.96429 -26.96428,26.96429 -14.88429,0 -26.96428,-12.08 -26.96428,-26.96429 0,-14.88428 12.07999,-26.96428 26.96428,-26.96428 14.88429,0 26.96428,12.08 26.96428,26.96428 z"
             style="fill:url(#linearGradient5324);fill-opacity:1;stroke:none;filter:url(#filter3808)"
             transform="matrix(0.3512979,0,0,0.3512979,194.52715,339.60253)" /><path
             inkscape:connector-curvature="0"
             sodipodi:nodetypes="cscc"
             id="path3820"
             d="m 231.31576,520.83504 c 4.04342,-9.79118 13.6884,-16.68714 24.93424,-16.68714 11.64475,0 21.57305,7.39385 25.3432,17.73981 l -50.27744,-1.05267 z"
             style="fill:#ffffff;fill-opacity:1;stroke:none;filter:url(#filter3808)"
             transform="matrix(0.3512979,0,0,0.3512979,194.52715,343.88824)" /></g><path
           inkscape:connector-curvature="0"
           style="fill:url(#linearGradient3068);fill-opacity:1;stroke:none"
           d="m 369.21875,481.71875 -2.15625,6.59375 0,0.1875 c -3.34544,0.43847 -6.54858,1.28098 -9.5625,2.53125 l -0.0625,-0.125 -5.1875,-4.65625 -4.875,2.8125 1.40625,6.8125 0.0937,0.15625 c -2.62211,2.01686 -4.95059,4.37894 -6.96875,7 l -0.15625,-0.0937 -6.8125,-1.4375 -2.8125,4.875 4.625,5.1875 0.15625,0.0625 c -0.93645,2.25713 -1.66642,4.63994 -2.15625,7.09375 -0.16328,0.81794 -0.29644,1.6337 -0.40625,2.46875 l -0.15625,0 -6.625,2.15625 0,5.65625 6.625,2.15625 0.15625,0 c 0.43848,3.34664 1.31166,6.54761 2.5625,9.5625 l -0.0312,0.0312 c 6.13383,0.56803 12.69404,0.58295 19.5625,-0.0312 21.13182,-1.88966 40.57265,-9.31675 53.875,-19.40625 l -0.40625,-0.125 -0.15625,0 c -0.43925,-3.34018 -1.3139,-6.55299 -2.5625,-9.5625 l 0.15625,-0.0625 4.625,-5.1875 -2.8125,-4.875 -6.8125,1.4375 -0.15625,0.0937 c -2.01816,-2.62106 -4.34664,-4.98314 -6.96875,-7 l 0.0937,-0.15625 1.40625,-6.8125 -4.875,-2.8125 -5.1875,4.65625 -0.0625,0.125 c -3.01392,-1.25027 -6.21706,-2.09278 -9.5625,-2.53125 l 0,-0.1875 -2.15625,-6.59375 -5.65625,0 z"
           id="path2443" /></g><g
         transform="matrix(0.6787471,0,0,0.6787471,178.44468,214.03925)"
         id="g3344"><path
           inkscape:connector-curvature="0"
           id="path3346"
           d="m 369.21912,481.71875 -2.15625,6.59375 0,0.1875 c -3.34544,0.43847 -6.54858,1.28098 -9.5625,2.53125 l -0.0625,-0.125 -5.1875,-4.65625 -4.875,2.8125 1.40625,6.8125 0.0937,0.15625 c -2.62211,2.01686 -4.95059,4.37894 -6.96875,7 l -0.15625,-0.0937 -6.8125,-1.4375 -2.8125,4.875 4.625,5.1875 0.15625,0.0625 c -1.2486,3.00951 -2.12326,6.22232 -2.5625,9.5625 l -0.15625,0 -6.625,2.15625 0,5.65625 6.625,2.15625 0.15625,0 c 0.43848,3.34664 1.31166,6.54761 2.5625,9.5625 l -0.15625,0.0937 -4.625,5.15625 2.8125,4.90625 6.8125,-1.4375 0.125,-0.0937 c 2.02078,2.62721 4.37279,4.97922 7,7 l -0.0937,0.15625 -1.40625,6.78125 4.875,2.8125 5.1875,-4.625 0.0937,-0.15625 c 3.00659,1.24468 6.19515,2.12525 9.53125,2.5625 l 0,0.1875 2.15625,6.59375 5.65625,0 2.15625,-6.59375 0,-0.1875 c 3.3361,-0.43725 6.52466,-1.31782 9.53125,-2.5625 l 0.0937,0.15625 5.1875,4.625 4.875,-2.8125 -1.40625,-6.78125 -0.0937,-0.15625 c 2.62721,-2.02078 4.97922,-4.37279 7,-7 l 0.125,0.0937 6.8125,1.4375 2.8125,-4.90625 -4.625,-5.15625 -0.15625,-0.0937 c 1.25084,-3.01489 2.12402,-6.21586 2.5625,-9.5625 l 0.15625,0 6.625,-2.15625 0,-5.65625 -6.625,-2.15625 -0.15625,0 c -0.43925,-3.34018 -1.3139,-6.55299 -2.5625,-9.5625 l 0.15625,-0.0625 4.625,-5.1875 -2.8125,-4.875 -6.8125,1.4375 -0.15625,0.0937 c -2.01816,-2.62106 -4.34664,-4.98314 -6.96875,-7 l 0.0937,-0.15625 1.40625,-6.8125 -4.875,-2.8125 -5.1875,4.65625 -0.0625,0.125 c -3.01392,-1.25027 -6.21706,-2.09278 -9.5625,-2.53125 l 0,-0.1875 -2.15625,-6.59375 -5.65625,0 z m 2.84375,10.71875 c 18.62999,10e-6 33.75,15.12001 33.75,33.75 1e-5,18.62998 -15.12,33.75 -33.75,33.75 -18.63002,-2e-5 -33.75,-15.12 -33.75,-33.75 0,-18.63002 15.12,-33.75 33.75,-33.75 z"
           style="fill:#000000;fill-opacity:1;stroke:none;filter:url(#filter3525)" /><path
           inkscape:connector-curvature="0"
           style="fill:url(#linearGradient3056);fill-opacity:1;stroke:none"
           d="m 369.21912,481.71875 -2.15625,6.59375 0,0.1875 c -3.34544,0.43847 -6.54858,1.28098 -9.5625,2.53125 l -0.0625,-0.125 -5.1875,-4.65625 -4.875,2.8125 1.40625,6.8125 0.0937,0.15625 c -2.62211,2.01686 -4.95059,4.37894 -6.96875,7 l -0.15625,-0.0937 -6.8125,-1.4375 -2.8125,4.875 4.625,5.1875 0.15625,0.0625 c -1.2486,3.00951 -2.12326,6.22232 -2.5625,9.5625 l -0.15625,0 -6.625,2.15625 0,5.65625 6.625,2.15625 0.15625,0 c 0.43848,3.34664 1.31166,6.54761 2.5625,9.5625 l -0.15625,0.0937 -4.625,5.15625 2.8125,4.90625 6.8125,-1.4375 0.125,-0.0937 c 2.02078,2.62721 4.37279,4.97922 7,7 l -0.0937,0.15625 -1.40625,6.78125 4.875,2.8125 5.1875,-4.625 0.0937,-0.15625 c 3.00659,1.24468 6.19515,2.12525 9.53125,2.5625 l 0,0.1875 2.15625,6.59375 5.65625,0 2.15625,-6.59375 0,-0.1875 c 3.3361,-0.43725 6.52466,-1.31782 9.53125,-2.5625 l 0.0937,0.15625 5.1875,4.625 4.875,-2.8125 -1.40625,-6.78125 -0.0937,-0.15625 c 2.62721,-2.02078 4.97922,-4.37279 7,-7 l 0.125,0.0937 6.8125,1.4375 2.8125,-4.90625 -4.625,-5.15625 -0.15625,-0.0937 c 1.25084,-3.01489 2.12402,-6.21586 2.5625,-9.5625 l 0.15625,0 6.625,-2.15625 0,-5.65625 -6.625,-2.15625 -0.15625,0 c -0.43925,-3.34018 -1.3139,-6.55299 -2.5625,-9.5625 l 0.15625,-0.0625 4.625,-5.1875 -2.8125,-4.875 -6.8125,1.4375 -0.15625,0.0937 c -2.01816,-2.62106 -4.34664,-4.98314 -6.96875,-7 l 0.0937,-0.15625 1.40625,-6.8125 -4.875,-2.8125 -5.1875,4.65625 -0.0625,0.125 c -3.01392,-1.25027 -6.21706,-2.09278 -9.5625,-2.53125 l 0,-0.1875 -2.15625,-6.59375 -5.65625,0 z m 2.84375,10.71875 c 18.62999,10e-6 33.75,15.12001 33.75,33.75 1e-5,18.62998 -15.12,33.75 -33.75,33.75 -18.63002,-2e-5 -33.75,-15.12 -33.75,-33.75 0,-18.63002 15.12,-33.75 33.75,-33.75 z"
           id="path3348" /><circle
           r="26.964285"
           cy="531.11218"
           cx="256.25"
           transform="matrix(1.2649007,0,0,1.2649007,47.916443,-145.62307)"
           id="path3350"
           style="fill:url(#linearGradient3058);fill-opacity:1;stroke:none" /><circle
           r="26.964285"
           cy="531.11218"
           cx="256.25"
           style="fill:url(#linearGradient3060);fill-opacity:1;stroke:none"
           id="path3352"
           transform="matrix(1.1192053,0,0,1.1192053,85.250881,-68.242483)" /><g
           id="g3354"><circle
             r="26.964285"
             cy="531.11218"
             cx="256.25"
             transform="matrix(0.5231788,0,0,0.5231788,237.98267,248.31446)"
             id="path3356"
             style="fill:url(#linearGradient3062);fill-opacity:1;stroke:none" /><circle
             r="26.964285"
             cy="531.11218"
             cx="256.25"
             style="fill:url(#linearGradient3078);fill-opacity:1;stroke:none"
             id="path3358"
             transform="matrix(0.5231788,0,0,0.5231788,237.98267,248.31446)" /></g><circle
           r="26.964285"
           cy="531.11218"
           cx="256.25"
           transform="matrix(0.3512979,0,0,0.3512979,282.02715,339.60253)"
           id="path3360"
           style="fill:#ffffff;fill-opacity:1;stroke:none" /><circle
           r="26.964285"
           cy="531.11218"
           cx="256.25"
           style="fill:#ffffff;fill-opacity:1;stroke:none"
           id="path3362"
           transform="matrix(0.3512979,0,0,0.3512979,282.02715,339.60253)" /><circle
           r="26.964285"
           cy="531.11218"
           cx="256.25"
           transform="matrix(0.3512979,0,0,0.3512979,282.02715,339.60253)"
           id="path3364"
           style="fill:#ffffff;fill-opacity:1;stroke:none" /><g
           transform="translate(87.500004,0)"
           id="g3366"><path
             inkscape:connector-curvature="0"
             transform="matrix(0.3512979,0,0,0.3512979,194.52715,339.60253)"
             style="fill:url(#linearGradient3066);fill-opacity:1;stroke:none;filter:url(#filter3808)"
             d="m 283.21428,531.11218 c 0,14.88429 -12.07999,26.96429 -26.96428,26.96429 -14.88429,0 -26.96428,-12.08 -26.96428,-26.96429 0,-14.88428 12.07999,-26.96428 26.96428,-26.96428 14.88429,0 26.96428,12.08 26.96428,26.96428 z"
             id="path3368" /><path
             inkscape:connector-curvature="0"
             transform="matrix(0.3512979,0,0,0.3512979,194.52715,343.88824)"
             style="fill:#ffffff;fill-opacity:1;stroke:none;filter:url(#filter3808)"
             d="m 231.31576,520.83504 c 4.04342,-9.79118 13.6884,-16.68714 24.93424,-16.68714 11.64475,0 21.57305,7.39385 25.3432,17.73981 l -50.27744,-1.05267 z"
             id="path3370"
             sodipodi:nodetypes="cscc" /></g><path
           inkscape:connector-curvature="0"
           id="path3372"
           d="m 369.21875,481.71875 -2.15625,6.59375 0,0.1875 c -3.34544,0.43847 -6.54858,1.28098 -9.5625,2.53125 l -0.0625,-0.125 -5.1875,-4.65625 -4.875,2.8125 1.40625,6.8125 0.0937,0.15625 c -2.62211,2.01686 -4.95059,4.37894 -6.96875,7 l -0.15625,-0.0937 -6.8125,-1.4375 -2.8125,4.875 4.625,5.1875 0.15625,0.0625 c -0.93645,2.25713 -1.66642,4.63994 -2.15625,7.09375 -0.16328,0.81794 -0.29644,1.6337 -0.40625,2.46875 l -0.15625,0 -6.625,2.15625 0,5.65625 6.625,2.15625 0.15625,0 c 0.43848,3.34664 1.31166,6.54761 2.5625,9.5625 l -0.0312,0.0312 c 6.13383,0.56803 12.69404,0.58295 19.5625,-0.0312 21.13182,-1.88966 40.57265,-9.31675 53.875,-19.40625 l -0.40625,-0.125 -0.15625,0 c -0.43925,-3.34018 -1.3139,-6.55299 -2.5625,-9.5625 l 0.15625,-0.0625 4.625,-5.1875 -2.8125,-4.875 -6.8125,1.4375 -0.15625,0.0937 c -2.01816,-2.62106 -4.34664,-4.98314 -6.96875,-7 l 0.0937,-0.15625 1.40625,-6.8125 -4.875,-2.8125 -5.1875,4.65625 -0.0625,0.125 c -3.01392,-1.25027 -6.21706,-2.09278 -9.5625,-2.53125 l 0,-0.1875 -2.15625,-6.59375 -5.65625,0 z"
           style="fill:url(#linearGradient3082);fill-opacity:1;stroke:none" /></g></g></g></svg>