<?xml version="1.0" encoding="UTF-8" standalone="no"?>
<svg
   xmlns:dc="http://purl.org/dc/elements/1.1/"
   xmlns:cc="http://creativecommons.org/ns#"
   xmlns:rdf="http://www.w3.org/1999/02/22-rdf-syntax-ns#"
   xmlns:svg="http://www.w3.org/2000/svg"
   xmlns="http://www.w3.org/2000/svg"
   xmlns:xlink="http://www.w3.org/1999/xlink"
   xmlns:sodipodi="http://sodipodi.sourceforge.net/DTD/sodipodi-0.dtd"
   xmlns:inkscape="http://www.inkscape.org/namespaces/inkscape"
   width="119"
   height="123"
   viewBox="0.023 -0.342 119 123"
   overflow="visible"
   enable-background="new 0.023 -0.342 119 123"
   xml:space="preserve"
   id="svg1"
   sodipodi:version="0.32"
   inkscape:version="0.91 r13725"
   sodipodi:docname="server-auth.svg"
   inkscape:export-filename="/home/arcisz/Desktop/Projekty/mycomputer.png"
   inkscape:export-xdpi="96.809998"
   inkscape:export-ydpi="96.809998"
   version="1.1"><defs
     id="defs168"><linearGradient
       inkscape:collect="always"
       id="linearGradient4362"><stop
         style="stop-color:#0055d4;stop-opacity:1"
         offset="0"
         id="stop4364" /><stop
         style="stop-color:#80b3ff;stop-opacity:1"
         offset="1"
         id="stop4366" /></linearGradient><inkscape:perspective
       sodipodi:type="inkscape:persp3d"
       inkscape:vp_x="-224.69317 : 130.60723 : 1"
       inkscape:vp_y="0 : 3956.0301 : 0"
       inkscape:vp_z="187.67774 : 159.2498 : 1"
       inkscape:persp3d-origin="-26.325296 : -161.18864 : 1"
       id="perspective4220" /><linearGradient
       id="linearGradient2049"><stop
         offset="0.033700000"
         style="stop-color:#00ff00;stop-opacity:1.0000000;"
         id="stop2050" /><stop
         offset="1.0000000"
         style="stop-color:#009700;stop-opacity:1.0000000;"
         id="stop2051" /></linearGradient><linearGradient
       id="linearGradient2020"><stop
         offset="0.0000000"
         style="stop-color:#9e9e9e;stop-opacity:1.0000000;"
         id="stop2022" /><stop
         offset="1.0000000"
         style="stop-color:#616161;stop-opacity:1.0000000;"
         id="stop2021" /></linearGradient><linearGradient
       id="linearGradient2017"><stop
         offset="0.0000000"
         style="stop-color:#9e9e9e;stop-opacity:1.0000000;"
         id="stop2019" /><stop
         offset="1.0000000"
         style="stop-color:#616161;stop-opacity:1.0000000;"
         id="stop2018" /></linearGradient><linearGradient
       id="linearGradient2001"><stop
         offset="0.033700000"
         style="stop-color:#ffffff;stop-opacity:1.0000000;"
         id="stop2003" /><stop
         offset="1.0000000"
         style="stop-color:#878787;stop-opacity:1.0000000;"
         id="stop2002" /></linearGradient><linearGradient
       id="linearGradient1987"><stop
         offset="0.033700000"
         style="stop-color:#ffffff;stop-opacity:1.0000000;"
         id="stop1989" /><stop
         offset="1.0000000"
         style="stop-color:#b2b2b2;stop-opacity:1.0000000;"
         id="stop1988" /></linearGradient><linearGradient
       id="linearGradient1939"><stop
         offset="0.0000000"
         style="stop-color:#ffffff;stop-opacity:1.0000000;"
         id="stop1941" /><stop
         offset="1.0000000"
         style="stop-color:#cfcfcf;stop-opacity:1.0000000;"
         id="stop1940" /></linearGradient><linearGradient
       id="linearGradient1925"><stop
         offset="0.0000000"
         style="stop-color:#ffffff;stop-opacity:1.0000000;"
         id="stop1927" /><stop
         offset="1.0000000"
         style="stop-color:#ffffff;stop-opacity:0.0000000;"
         id="stop1926" /></linearGradient><linearGradient
       id="linearGradient1910"><stop
         offset="0.033700000"
         style="stop-color:#ffffff;stop-opacity:1.0000000;"
         id="stop1912" /><stop
         offset="1.0000000"
         style="stop-color:#b2b2b2;stop-opacity:1.0000000;"
         id="stop1911" /></linearGradient><linearGradient
       id="linearGradient1902"><stop
         offset="0.0000000"
         style="stop-color:#9e9e9e;stop-opacity:1.0000000;"
         id="stop1904" /><stop
         offset="1.0000000"
         style="stop-color:#616161;stop-opacity:1.0000000;"
         id="stop1903" /></linearGradient><linearGradient
       id="linearGradient1895"><stop
         offset="0.0000000"
         style="stop-color:#cccccc;stop-opacity:1.0000000;"
         id="stop1897" /><stop
         offset="1.0000000"
         style="stop-color:#616161;stop-opacity:1.0000000;"
         id="stop1896" /></linearGradient><linearGradient
       inkscape:collect="always"
       xlink:href="#linearGradient1902"
       id="linearGradient1894"
       gradientTransform="matrix(0.6573817,0,0,1.528169,-53.631615,0.7939598)"
       x1="167.02687"
       y1="72.892693"
       x2="167.02687"
       y2="7.5409803"
       gradientUnits="userSpaceOnUse" /><linearGradient
       inkscape:collect="always"
       xlink:href="#linearGradient1902"
       id="linearGradient1901"
       gradientTransform="matrix(0.6573817,0,0,1.528169,-52.12873,4.3567078)"
       x1="131.02010"
       y1="69.246124"
       x2="131.02010"
       y2="6.2129593"
       gradientUnits="userSpaceOnUse" /><linearGradient
       inkscape:collect="always"
       xlink:href="#linearGradient1925"
       id="linearGradient1924"
       gradientTransform="scale(0.739360,1.352522)"
       x1="108.45679"
       y1="33.612988"
       x2="134.87514"
       y2="60.464489"
       gradientUnits="userSpaceOnUse" /><linearGradient
       inkscape:collect="always"
       xlink:href="#linearGradient1902"
       id="linearGradient1928"
       gradientUnits="userSpaceOnUse"
       gradientTransform="matrix(0.68373712,0,0,1.587269,-58.229781,3.4662088)"
       x1="151.29254"
       y1="29.794262"
       x2="174.05838"
       y2="65.575829" /><linearGradient
       inkscape:collect="always"
       xlink:href="#linearGradient1910"
       id="linearGradient1929"
       gradientUnits="userSpaceOnUse"
       gradientTransform="matrix(0.66755317,0,0,1.562217,-54.000346,4.7403008)"
       x1="147.33380"
       y1="66.201660"
       x2="147.33380"
       y2="5.2269168" /><linearGradient
       inkscape:collect="always"
       xlink:href="#linearGradient1939"
       id="linearGradient1977"
       gradientUnits="userSpaceOnUse"
       gradientTransform="matrix(1.718143,0.000000,0.000000,0.233940,1.496018,65.51328)"
       x1="47.610882"
       y1="20.173775"
       x2="56.110985"
       y2="53.457325" /><linearGradient
       inkscape:collect="always"
       xlink:href="#linearGradient1902"
       id="linearGradient1978"
       gradientUnits="userSpaceOnUse"
       gradientTransform="matrix(1.587228,0.000000,0.000000,0.212498,1.496018,66.29516)"
       x1="59.364616"
       y1="40.894772"
       x2="59.436813"
       y2="19.193310" /><linearGradient
       inkscape:collect="always"
       xlink:href="#linearGradient1939"
       id="linearGradient1980"
       gradientUnits="userSpaceOnUse"
       gradientTransform="matrix(1.718143,0.000000,0.000000,0.240258,1.496018,63.59053)"
       x1="47.610882"
       y1="20.173775"
       x2="56.110985"
       y2="53.457325" /><linearGradient
       inkscape:collect="always"
       xlink:href="#linearGradient1902"
       id="linearGradient1981"
       gradientUnits="userSpaceOnUse"
       gradientTransform="matrix(1.587228,0.000000,0.000000,0.218238,1.496018,64.39353)"
       x1="59.364616"
       y1="40.894772"
       x2="59.436813"
       y2="19.193310" /><linearGradient
       inkscape:collect="always"
       xlink:href="#linearGradient1925"
       id="linearGradient2058"
       gradientTransform="matrix(0.684984,0.06570631,0,1.368438,-50.529689,-1.032389)"
       x1="106.47888"
       y1="3.3512630"
       x2="134.77087"
       y2="65.580826"
       gradientUnits="userSpaceOnUse" /><filter
       inkscape:collect="always"
       id="filter26743"><feGaussianBlur
         inkscape:collect="always"
         stdDeviation="1.7451563"
         id="feGaussianBlur26745" /></filter><radialGradient
       inkscape:collect="always"
       xlink:href="#linearGradient4887"
       id="radialGradient26679"
       gradientUnits="userSpaceOnUse"
       gradientTransform="matrix(2.29677,0,0,2.3074567,-262.78274,-156.16707)"
       cx="202.64406"
       cy="119.64819"
       fx="202.64406"
       fy="119.64819"
       r="58.283894" /><linearGradient
       id="linearGradient4887"><stop
         id="stop4889"
         offset="0"
         style="stop-color:#999999;stop-opacity:1" /><stop
         id="stop4891"
         offset="1"
         style="stop-color:#7b726e;stop-opacity:1" /></linearGradient><linearGradient
       inkscape:collect="always"
       xlink:href="#linearGradient4879"
       id="linearGradient26681"
       gradientUnits="userSpaceOnUse"
       x1="202.15273"
       y1="4.5639811"
       x2="202.91524"
       y2="106.53008" /><linearGradient
       id="linearGradient4879"><stop
         style="stop-color:#ffffff;stop-opacity:0.86178863;"
         offset="0"
         id="stop4881" /><stop
         id="stop4883"
         offset="0.08275343"
         style="stop-color:#666666;stop-opacity:1" /><stop
         style="stop-color:#cccccc;stop-opacity:1"
         offset="1"
         id="stop4885" /></linearGradient><linearGradient
       inkscape:collect="always"
       xlink:href="#linearGradient26578"
       id="linearGradient26683"
       gradientUnits="userSpaceOnUse"
       x1="200.47447"
       y1="118.72263"
       x2="200.2034"
       y2="99.468399" /><linearGradient
       id="linearGradient26578"><stop
         style="stop-color:#ffffff;stop-opacity:0.86178863;"
         offset="0"
         id="stop26580" /><stop
         id="stop26582"
         offset="0.19600193"
         style="stop-color:#f3ffff;stop-opacity:0.56078431;" /><stop
         style="stop-color:#e8ffff;stop-opacity:0"
         offset="1"
         id="stop26584" /></linearGradient><linearGradient
       inkscape:collect="always"
       xlink:href="#linearGradient4362"
       id="linearGradient4368"
       x1="-27.455961"
       y1="52.378418"
       x2="-40.595249"
       y2="41.394169"
       gradientUnits="userSpaceOnUse" /><linearGradient
       inkscape:collect="always"
       xlink:href="#linearGradient2020"
       id="linearGradient4265"
       gradientTransform="matrix(0.6573817,0,0,1.528169,-52.12873,4.3567078)"
       x1="131.0201"
       y1="69.246124"
       x2="131.0201"
       y2="6.2129593"
       gradientUnits="userSpaceOnUse" /><linearGradient
       inkscape:collect="always"
       xlink:href="#linearGradient2020"
       id="linearGradient4267"
       gradientUnits="userSpaceOnUse"
       gradientTransform="matrix(0.68373712,0,0,1.587269,-58.229781,3.4662088)"
       x1="151.29254"
       y1="29.794262"
       x2="174.05838"
       y2="65.575829" /><linearGradient
       inkscape:collect="always"
       xlink:href="#linearGradient4335"
       id="linearGradient4341"
       x1="96.967201"
       y1="120.0013"
       x2="78.128838"
       y2="31.376297"
       gradientUnits="userSpaceOnUse"
       gradientTransform="matrix(0.99491649,-0.70287121,0,1.0252039,0.16338449,45.811057)" /><linearGradient
       inkscape:collect="always"
       id="linearGradient4335"><stop
         style="stop-color:#000000;stop-opacity:1;"
         offset="0"
         id="stop4337" /><stop
         style="stop-color:#cccccc;stop-opacity:1"
         offset="1"
         id="stop4339" /></linearGradient></defs><metadata
     id="metadata167"><rdf:RDF><cc:Work
         rdf:about=""><dc:format>image/svg+xml</dc:format><dc:type
           rdf:resource="http://purl.org/dc/dcmitype/StillImage" /><dc:title /></cc:Work></rdf:RDF></metadata><sodipodi:namedview
     id="base"
     pagecolor="#ffffff"
     bordercolor="#666666"
     borderopacity="1.0"
     inkscape:pageopacity="0.0"
     inkscape:pageshadow="2"
     inkscape:zoom="7.9999999"
     inkscape:cx="54.606862"
     inkscape:cy="70.303808"
     inkscape:window-width="2560"
     inkscape:window-height="1378"
     inkscape:window-x="0"
     inkscape:window-y="0"
     inkscape:current-layer="g4293"
     showguides="true"
     inkscape:guide-bbox="true"
     showgrid="false"
     inkscape:window-maximized="1" /><g
     id="g4345"
     transform="matrix(1.2377733,0,0,0.94952568,-8.4597336,6.5389468)"><g
       id="g4456"
       transform="translate(1.6158048,-2.1063197)"><g
         id="g4293"
         transform="matrix(0.80790238,0,0,1.0531574,6.8346389,-6.8865402)"><path
           style="opacity:1;fill:url(#linearGradient4341);fill-opacity:1;fill-rule:evenodd;stroke:#070707;stroke-width:1.01226199;stroke-linejoin:round;stroke-miterlimit:4;stroke-dasharray:none;stroke-dashoffset:0;stroke-opacity:0"
           d="m 72.523973,22.693225 25.48683,-18.0054919 0,86.1601249 -25.48683,29.880502 z"
           id="rect4333"
           inkscape:connector-curvature="0"
           sodipodi:nodetypes="ccccc" /><path
           style="opacity:1;fill:#999999;fill-opacity:1;fill-rule:evenodd;stroke:#070707;stroke-width:0.99999994;stroke-linejoin:round;stroke-miterlimit:4;stroke-dasharray:none;stroke-dashoffset:0;stroke-opacity:0"
           d="M 53.645573,3.2594951 98.014793,4.7443301 72.456733,22.867806 17.883508,19.111524 Z"
           id="rect4346"
           inkscape:connector-curvature="0"
           sodipodi:nodetypes="ccccc" /></g><rect
         transform="matrix(0.99543081,0.09548557,0,1,0,0)"
         style="fill:url(#linearGradient1894);fill-opacity:1;stroke:url(#linearGradient1901);stroke-width:1.40521395;stroke-linecap:round;stroke-linejoin:round;stroke-miterlimit:4;stroke-dasharray:none;stroke-dashoffset:0;stroke-opacity:1"
         id="rect1269"
         width="43.023697"
         height="101.88646"
         x="22.01083"
         y="11.65086"
         ry="0"
         rx="0" /><rect
         transform="matrix(0.99543081,0.09548557,0,1,0,0)"
         style="fill:url(#linearGradient1928);fill-opacity:1;stroke:url(#linearGradient1929);stroke-width:0.76590562;stroke-linecap:round;stroke-linejoin:round;stroke-miterlimit:4;stroke-dashoffset:0;stroke-opacity:1"
         id="rect1905"
         width="41.851254"
         height="98.974815"
         x="22.597059"
         y="12.167039"
         ry="0"
         rx="0" /><path
         style="fill:url(#linearGradient2058);fill-opacity:1;fill-rule:evenodd;stroke:none;stroke-width:0.25pt;stroke-linecap:butt;stroke-linejoin:miter;stroke-opacity:1"
         d="m 27.105623,17.427649 c -2.31641,-0.222199 -4.175243,1.458327 -4.175243,3.774738 l 0,76.697394 C 47.273518,97.832025 43.362889,64.278315 63.260798,63.82818 l 0,-38.757144 c 0,-2.316411 -1.85883,-4.353549 -4.17524,-4.575748 L 27.105623,17.427649 Z"
         id="path2052"
         inkscape:connector-curvature="0" /><g
         id="g4349"
         transform="translate(75.538873,8.1619699)"><rect
           ry="6.1660681"
           rx="3.8456156"
           y="22.504982"
           x="-46.872288"
           height="38.440247"
           width="29.084486"
           id="rect4337"
           style="opacity:1;fill:url(#linearGradient4368);fill-opacity:1;stroke:none;stroke-width:0.1;stroke-miterlimit:4;stroke-dasharray:none;stroke-opacity:1" /><g
           id="g4997"
           transform="matrix(0.30796171,0.03024685,0,0.40144968,-95.388467,9.6613603)"><g
             id="g4987"><path
               style="fill:#4d4d4d;fill-opacity:1;stroke:none;filter:url(#filter26743)"
               d="m 165.32349,4.8676168 c -10.66685,0 -19.25,8.6144022 -19.25,19.2812502 l 0,78.093753 c 0,10.66685 8.58315,19.25 19.25,19.25 l 77.5625,0 c 10.66685,0 19.25,-8.58315 19.25,-19.25 l 0,-78.093753 c 0,-10.666848 -8.58315,-19.2812502 -19.25,-19.2812502 l -77.5625,0 z m 39.46875,20.7812502 c 12.2695,-0.172669 20.59375,6.754443 20.59375,14.75 l 0,16.9375 c 6.23729,0 8.9375,0.296097 8.9375,4.6875 l 0,34.093754 c 0.0714,5.040209 -5.15625,4.343749 -5.15625,4.343749 l -50.6875,0.28125 c -4.76903,-0.21901 -4.625,-5.156249 -4.625,-5.156249 l 0.34375,-33.562504 c -0.30973,-4.577269 5.60964,-4.666313 9.40625,-4.9375 l 0,-16.6875 c 0,-8.784241 8.91801,-14.577331 21.1875,-14.75 z m 0,7.25 c -4.38408,-0.05993 -11.40625,2.359449 -11.40625,7.5 0,6.779661 0.28125,16.9375 0.28125,16.9375 l 21.40625,0 0.28125,-16.9375 c 0,-4.400643 -6.69419,-7.44712 -10.5625,-7.5 z"
               id="path26685"
               inkscape:connector-curvature="0" /><path
               sodipodi:nodetypes="csccc"
               inkscape:connector-curvature="0"
               id="path26656"
               d="m 232.81356,59.79661 c 0.0678,-2.779661 -2.16102,-3.694915 -4.40678,-3.915254 -2.24576,-0.220339 -4.47043,0.254237 -4.47043,0.254237 l 0,1.690678 c 3.69165,0 7.8031,-0.09164 8.87721,1.970339 z"
               style="fill:#e6e6e6;fill-opacity:1;stroke:none" /><rect
               rx="0"
               ry="0"
               y="56.282593"
               x="192.14128"
               height="1.5340621"
               width="21.57275"
               id="rect26654"
               style="fill:#cccccc;fill-opacity:1;stroke:none" /><path
               sodipodi:nodetypes="ccc"
               inkscape:connector-curvature="0"
               id="path26652"
               d="m 182.16988,38.251739 c -0.19176,-18.408746 42.05189,-19.75741 41.83167,0.119481 -6.43064,-15.343618 -32.8213,-18.305009 -41.83167,-0.119481 z"
               style="fill:#cccccc;fill-opacity:1;stroke:none" /><path
               style="fill:#e6e6e6;fill-opacity:1;stroke:none"
               d="m 172.79986,59.79661 c -0.0678,-2.779661 2.16102,-3.694915 4.40678,-3.915254 2.24576,-0.220339 4.94552,-0.110365 4.94552,-0.110365 l 0,2.05528 c -3.69165,0 -8.27819,-0.09164 -9.3523,1.970339 z"
               id="path26658"
               inkscape:connector-curvature="0"
               sodipodi:nodetypes="csccc" /><path
               inkscape:connector-curvature="0"
               id="rect25973"
               d="m 163.875,3.78125 c -10.66685,0 -19.25,8.614402 -19.25,19.28125 l 0,78.09375 c 0,10.66685 8.58315,19.25 19.25,19.25 l 77.5625,0 c 10.66685,0 19.25,-8.58315 19.25,-19.25 l 0,-78.09375 c 0,-10.666848 -8.58315,-19.28125 -19.25,-19.28125 l -77.5625,0 z m 39.46875,20.78125 c 12.2695,-0.172669 20.59375,6.754443 20.59375,14.75 l 0,16.9375 c 6.23729,0 8.9375,0.296097 8.9375,4.6875 l 0,34.09375 c 0.0714,5.04021 -5.15625,4.34375 -5.15625,4.34375 l -50.6875,0.28125 C 172.26222,99.43724 172.40625,94.5 172.40625,94.5 L 172.75,60.9375 c -0.30973,-4.577269 5.60964,-4.666313 9.40625,-4.9375 l 0,-16.6875 c 0,-8.784241 8.91801,-14.577331 21.1875,-14.75 z m 0,7.25 c -4.38408,-0.05993 -11.40625,2.359449 -11.40625,7.5 0,6.779661 0.28125,16.9375 0.28125,16.9375 l 21.40625,0 0.28125,-16.9375 c 0,-4.400643 -6.69419,-7.44712 -10.5625,-7.5 z"
               style="fill:url(#radialGradient26679);fill-opacity:1;stroke:none" /><path
               inkscape:connector-curvature="0"
               id="rect26548"
               d="m 164.59375,4.875 c -10.46747,0 -18.90625,8.438782 -18.90625,18.90625 0,0 13.28814,29.198623 0,76.65625 -2.18709,9.51273 12.22286,7.45676 31.4375,-0.78125 l -0.0937,0 C 172.26222,99.43724 172.40625,94.5 172.40625,94.5 L 172.75,60.9375 c -0.30973,-4.577269 5.60964,-4.666313 9.40625,-4.9375 l 0,-16.6875 c 0,-8.784241 8.91801,-14.577331 21.1875,-14.75 12.2695,-0.172669 20.59375,6.754443 20.59375,14.75 l 0,16.9375 c 6.23729,0 8.9375,0.296097 8.9375,4.6875 l 0,4.6875 c 14.68706,-12.188574 25.61776,-25.290254 26.71875,-36.53125 l 0,-5.3125 C 259.59375,13.313782 251.15497,4.875 240.6875,4.875 l -76.09375,0 z m 38.75,26.9375 c -4.38408,-0.05993 -11.40625,2.359449 -11.40625,7.5 0,6.779661 0.28125,16.9375 0.28125,16.9375 l 21.40625,0 0.28125,-16.9375 c 0,-4.400643 -6.69419,-7.44712 -10.5625,-7.5 z"
               style="fill:url(#linearGradient26681);fill-opacity:1;stroke:none" /><path
               sodipodi:nodetypes="csscc"
               inkscape:connector-curvature="0"
               id="rect26567"
               d="m 258.50848,99.692693 c 0,10.268087 -8.26637,18.534457 -18.53446,18.534457 l -74.6599,0 c -10.26809,0 -18.53446,-8.26637 -18.53446,-18.534457 -0.12623,18.270907 111.72882,18.908307 111.72882,0 z"
               style="fill:url(#linearGradient26683);fill-opacity:1;stroke:none" /></g></g></g></g></g></svg>