<?xml version="1.0" encoding="UTF-8" standalone="no"?>
<svg
   xmlns:dc="http://purl.org/dc/elements/1.1/"
   xmlns:cc="http://creativecommons.org/ns#"
   xmlns:rdf="http://www.w3.org/1999/02/22-rdf-syntax-ns#"
   xmlns:svg="http://www.w3.org/2000/svg"
   xmlns="http://www.w3.org/2000/svg"
   xmlns:xlink="http://www.w3.org/1999/xlink"
   xmlns:sodipodi="http://sodipodi.sourceforge.net/DTD/sodipodi-0.dtd"
   xmlns:inkscape="http://www.inkscape.org/namespaces/inkscape"
   width="119"
   height="123"
   viewBox="0.023 -0.342 119 123"
   overflow="visible"
   enable-background="new 0.023 -0.342 119 123"
   xml:space="preserve"
   id="svg1"
   sodipodi:version="0.32"
   inkscape:version="0.91 r13725"
   sodipodi:docname="server-discovery.svg"
   inkscape:export-filename="/home/arcisz/Desktop/Projekty/mycomputer.png"
   inkscape:export-xdpi="96.809998"
   inkscape:export-ydpi="96.809998"
   version="1.1"><defs
     id="defs168"><linearGradient
       inkscape:collect="always"
       id="linearGradient4372"><stop
         style="stop-color:#404040;stop-opacity:1"
         offset="0"
         id="stop4374" /><stop
         style="stop-color:#cccccc;stop-opacity:1"
         offset="1"
         id="stop4376" /></linearGradient><inkscape:perspective
       sodipodi:type="inkscape:persp3d"
       inkscape:vp_x="-251.56323 : 129.36979 : 1"
       inkscape:vp_y="0 : 3956.0301 : 0"
       inkscape:vp_z="160.80768 : 158.01236 : 1"
       inkscape:persp3d-origin="-53.195354 : -162.42608 : 1"
       id="perspective4220" /><linearGradient
       id="linearGradient2049"><stop
         offset="0.033700000"
         style="stop-color:#00ff00;stop-opacity:1.0000000;"
         id="stop2050" /><stop
         offset="1.0000000"
         style="stop-color:#009700;stop-opacity:1.0000000;"
         id="stop2051" /></linearGradient><linearGradient
       id="linearGradient2020"><stop
         offset="0.0000000"
         style="stop-color:#9e9e9e;stop-opacity:1.0000000;"
         id="stop2022" /><stop
         offset="1.0000000"
         style="stop-color:#616161;stop-opacity:1.0000000;"
         id="stop2021" /></linearGradient><linearGradient
       id="linearGradient2017"><stop
         offset="0.0000000"
         style="stop-color:#9e9e9e;stop-opacity:1.0000000;"
         id="stop2019" /><stop
         offset="1.0000000"
         style="stop-color:#616161;stop-opacity:1.0000000;"
         id="stop2018" /></linearGradient><linearGradient
       id="linearGradient2001"><stop
         offset="0.033700000"
         style="stop-color:#ffffff;stop-opacity:1.0000000;"
         id="stop2003" /><stop
         offset="1.0000000"
         style="stop-color:#878787;stop-opacity:1.0000000;"
         id="stop2002" /></linearGradient><linearGradient
       id="linearGradient1987"><stop
         offset="0.033700000"
         style="stop-color:#ffffff;stop-opacity:1.0000000;"
         id="stop1989" /><stop
         offset="1.0000000"
         style="stop-color:#b2b2b2;stop-opacity:1.0000000;"
         id="stop1988" /></linearGradient><linearGradient
       id="linearGradient1939"><stop
         offset="0.0000000"
         style="stop-color:#ffffff;stop-opacity:1.0000000;"
         id="stop1941" /><stop
         offset="1.0000000"
         style="stop-color:#cfcfcf;stop-opacity:1.0000000;"
         id="stop1940" /></linearGradient><linearGradient
       id="linearGradient1925"><stop
         offset="0.0000000"
         style="stop-color:#ffffff;stop-opacity:1.0000000;"
         id="stop1927" /><stop
         offset="1.0000000"
         style="stop-color:#ffffff;stop-opacity:0.0000000;"
         id="stop1926" /></linearGradient><linearGradient
       id="linearGradient1910"><stop
         offset="0.033700000"
         style="stop-color:#ffffff;stop-opacity:1.0000000;"
         id="stop1912" /><stop
         offset="1.0000000"
         style="stop-color:#b2b2b2;stop-opacity:1.0000000;"
         id="stop1911" /></linearGradient><linearGradient
       id="linearGradient1902"><stop
         offset="0.0000000"
         style="stop-color:#9e9e9e;stop-opacity:1.0000000;"
         id="stop1904" /><stop
         offset="1.0000000"
         style="stop-color:#616161;stop-opacity:1.0000000;"
         id="stop1903" /></linearGradient><linearGradient
       id="linearGradient1895"><stop
         offset="0.0000000"
         style="stop-color:#cccccc;stop-opacity:1.0000000;"
         id="stop1897" /><stop
         offset="1.0000000"
         style="stop-color:#616161;stop-opacity:1.0000000;"
         id="stop1896" /></linearGradient><linearGradient
       inkscape:collect="always"
       xlink:href="#linearGradient1902"
       id="linearGradient1894"
       gradientTransform="matrix(0.6573817,0,0,1.528169,-53.631615,0.7939598)"
       x1="167.02687"
       y1="72.892693"
       x2="167.02687"
       y2="7.5409803"
       gradientUnits="userSpaceOnUse" /><linearGradient
       inkscape:collect="always"
       xlink:href="#linearGradient1902"
       id="linearGradient1901"
       gradientTransform="matrix(0.6573817,0,0,1.528169,-52.12873,4.3567078)"
       x1="131.02010"
       y1="69.246124"
       x2="131.02010"
       y2="6.2129593"
       gradientUnits="userSpaceOnUse" /><linearGradient
       inkscape:collect="always"
       xlink:href="#linearGradient1925"
       id="linearGradient1924"
       gradientTransform="scale(0.739360,1.352522)"
       x1="108.45679"
       y1="33.612988"
       x2="134.87514"
       y2="60.464489"
       gradientUnits="userSpaceOnUse" /><linearGradient
       inkscape:collect="always"
       xlink:href="#linearGradient1902"
       id="linearGradient1928"
       gradientUnits="userSpaceOnUse"
       gradientTransform="matrix(0.68373712,0,0,1.587269,-58.229781,3.4662088)"
       x1="151.29254"
       y1="29.794262"
       x2="174.05838"
       y2="65.575829" /><linearGradient
       inkscape:collect="always"
       xlink:href="#linearGradient1910"
       id="linearGradient1929"
       gradientUnits="userSpaceOnUse"
       gradientTransform="matrix(0.66755317,0,0,1.562217,-54.000346,4.7403008)"
       x1="147.33380"
       y1="66.201660"
       x2="147.33380"
       y2="5.2269168" /><linearGradient
       inkscape:collect="always"
       xlink:href="#linearGradient1939"
       id="linearGradient1977"
       gradientUnits="userSpaceOnUse"
       gradientTransform="matrix(1.718143,0.000000,0.000000,0.233940,1.496018,65.51328)"
       x1="47.610882"
       y1="20.173775"
       x2="56.110985"
       y2="53.457325" /><linearGradient
       inkscape:collect="always"
       xlink:href="#linearGradient1902"
       id="linearGradient1978"
       gradientUnits="userSpaceOnUse"
       gradientTransform="matrix(1.587228,0.000000,0.000000,0.212498,1.496018,66.29516)"
       x1="59.364616"
       y1="40.894772"
       x2="59.436813"
       y2="19.193310" /><linearGradient
       inkscape:collect="always"
       xlink:href="#linearGradient1939"
       id="linearGradient1980"
       gradientUnits="userSpaceOnUse"
       gradientTransform="matrix(1.718143,0.000000,0.000000,0.240258,1.496018,63.59053)"
       x1="47.610882"
       y1="20.173775"
       x2="56.110985"
       y2="53.457325" /><linearGradient
       inkscape:collect="always"
       xlink:href="#linearGradient1902"
       id="linearGradient1981"
       gradientUnits="userSpaceOnUse"
       gradientTransform="matrix(1.587228,0.000000,0.000000,0.218238,1.496018,64.39353)"
       x1="59.364616"
       y1="40.894772"
       x2="59.436813"
       y2="19.193310" /><linearGradient
       inkscape:collect="always"
       xlink:href="#linearGradient1925"
       id="linearGradient2058"
       gradientTransform="matrix(0.684984,0.06570631,0,1.368438,-50.529689,-1.032389)"
       x1="106.47888"
       y1="3.3512630"
       x2="134.77087"
       y2="65.580826"
       gradientUnits="userSpaceOnUse" /><linearGradient
       inkscape:collect="always"
       xlink:href="#linearGradient4372"
       id="linearGradient4378"
       x1="88.411354"
       y1="50.450779"
       x2="67.905251"
       y2="43.225418"
       gradientUnits="userSpaceOnUse"
       gradientTransform="matrix(1.0918329,-0.00516521,0,1.0379859,-0.0898534,-5.4834194)" /></defs><metadata
     id="metadata167"><rdf:RDF><cc:Work
         rdf:about=""><dc:format>image/svg+xml</dc:format><dc:type
           rdf:resource="http://purl.org/dc/dcmitype/StillImage" /><dc:title /></cc:Work></rdf:RDF></metadata><sodipodi:namedview
     id="base"
     pagecolor="#ffffff"
     bordercolor="#666666"
     borderopacity="1.0"
     inkscape:pageopacity="0.0"
     inkscape:pageshadow="2"
     inkscape:zoom="8"
     inkscape:cx="48.539713"
     inkscape:cy="46.964946"
     inkscape:window-width="2560"
     inkscape:window-height="1378"
     inkscape:window-x="0"
     inkscape:window-y="0"
     inkscape:current-layer="g4315"
     showguides="true"
     inkscape:guide-bbox="true"
     showgrid="false"
     inkscape:window-maximized="1" /><g
     id="g4345"
     transform="matrix(1.2377733,0,0,0.94952568,-8.4597336,6.5389468)"><g
       id="g4456"
       transform="translate(1.6158048,-2.1063197)"><g
         id="g4293"
         transform="matrix(0.80790238,0,0,1.0531574,6.8346389,-6.8865402)"><g
           transform="matrix(1,0.09592386,0,1,0,-4.1557877)"
           id="g4315"><g
             inkscape:corner7="-0.39162603 : 0.05441144 : 0.25 : 1"
             inkscape:corner0="-0.27076765 : 0.069503539 : 0 : 1"
             inkscape:perspectiveID="#perspective4220"
             style="opacity:1;fill:#000000;fill-opacity:1;stroke-width:1.40199995;stroke-linecap:round;stroke-miterlimit:4;stroke-dasharray:none"
             id="g4286"
             sodipodi:type="inkscape:box3d"><path
               points="72.522169,118.3024 97.659381,70.905631 54.313778,65.087407 18.482639,102.6343 "
               d="M 18.482639,102.6343 72.522169,118.3024 97.659381,70.905631 54.313778,65.087407 Z"
               inkscape:box3dsidetype="13"
               style="fill:#afafde;fill-rule:evenodd;stroke:none;stroke-width:1px;stroke-linecap:butt;stroke-linejoin:round;stroke-opacity:1"
               id="path4296"
               sodipodi:type="inkscape:box3dside" /><path
               points="18.482639,102.6343 54.313778,65.087407 54.313778,4.1163838 18.482639,20.760806 "
               d="m 18.482639,20.760806 0,81.873494 35.831139,-37.546893 0,-60.9710232 z"
               inkscape:box3dsidetype="6"
               style="fill:#353564;fill-rule:evenodd;stroke:none;stroke-width:1px;stroke-linecap:butt;stroke-linejoin:round;stroke-opacity:1"
               id="path4288"
               sodipodi:type="inkscape:box3dside" /><path
               points="97.659381,1.3499361 97.659381,70.905631 54.313778,65.087407 54.313778,4.1163838 "
               d="m 54.313778,4.1163838 43.345603,-2.7664477 0,69.5556949 -43.345603,-5.818224 z"
               inkscape:box3dsidetype="11"
               style="fill:#e9e9ff;fill-rule:evenodd;stroke:none;stroke-width:1px;stroke-linecap:butt;stroke-linejoin:round;stroke-opacity:1"
               id="path4298"
               sodipodi:type="inkscape:box3dside" /><path
               points="72.522169,20.164086 97.659381,1.3499361 54.313778,4.1163838 18.482639,20.760806 "
               d="M 18.482639,20.760806 72.522169,20.164086 97.659381,1.3499361 54.313778,4.1163838 Z"
               inkscape:box3dsidetype="5"
               style="fill:#808080;fill-rule:evenodd;stroke:none;stroke-width:1px;stroke-linecap:butt;stroke-linejoin:round;stroke-opacity:1"
               id="path4290"
               sodipodi:type="inkscape:box3dside" /><path
               points="72.522169,118.3024 97.659381,70.905631 97.659381,1.3499361 72.522169,20.164086 "
               d="m 72.522169,20.164086 0,98.138314 25.137212,-47.396769 0,-69.5556949 z"
               inkscape:box3dsidetype="14"
               style="fill:url(#linearGradient4378);fill-opacity:1;fill-rule:evenodd;stroke:none;stroke-width:1px;stroke-linecap:butt;stroke-linejoin:round;stroke-opacity:1"
               id="path4294"
               sodipodi:type="inkscape:box3dside" /><path
               points="72.522169,20.164086 72.522169,118.3024 18.482639,102.6343 18.482639,20.760806 "
               d="m 18.482639,20.760806 54.03953,-0.59672 0,98.138314 -54.03953,-15.6681 z"
               inkscape:box3dsidetype="3"
               style="opacity:1;fill:#b8bac3;fill-opacity:1"
               id="path4292"
               sodipodi:type="inkscape:box3dside" /></g></g></g><rect
         transform="matrix(0.99543081,0.09548557,0,1,0,0)"
         style="fill:url(#linearGradient1894);fill-opacity:1;stroke:url(#linearGradient1901);stroke-width:1.40521395;stroke-linecap:round;stroke-linejoin:round;stroke-miterlimit:4;stroke-dasharray:none;stroke-dashoffset:0;stroke-opacity:1"
         id="rect1269"
         width="43.023697"
         height="101.88646"
         x="22.01083"
         y="11.65086"
         ry="0"
         rx="0" /><rect
         transform="matrix(0.99543081,0.09548557,0,1,0,0)"
         style="fill:url(#linearGradient1928);fill-opacity:1;stroke:url(#linearGradient1929);stroke-width:0.76590562;stroke-linecap:round;stroke-linejoin:round;stroke-miterlimit:4;stroke-dashoffset:0;stroke-opacity:1"
         id="rect1905"
         width="41.851254"
         height="98.974815"
         x="22.597059"
         y="12.167039"
         ry="0"
         rx="0" /><path
         style="fill:url(#linearGradient2058);fill-opacity:1;fill-rule:evenodd;stroke:none;stroke-width:0.25pt;stroke-linecap:butt;stroke-linejoin:miter;stroke-opacity:1"
         d="m 27.105623,17.427649 c -2.31641,-0.222199 -4.175243,1.458327 -4.175243,3.774738 l 0,76.697394 C 47.273518,97.832025 43.362889,64.278315 63.260798,63.82818 l 0,-38.757144 c 0,-2.316411 -1.85883,-4.353549 -4.17524,-4.575748 L 27.105623,17.427649 Z"
         id="path2052"
         inkscape:connector-curvature="0" /></g><path
       style="fill:#000000"
       d="m 38.976112,92.662787 c 0,-0.287359 0.332713,-2.355107 0.815312,-5.06702 0.167268,-0.939931 0.39679,-2.245124 0.785537,-4.466958 0.101622,-0.580814 0.335134,-1.934018 0.518916,-3.007102 0.449998,-2.627515 0.907429,-5.284107 1.147616,-6.664901 0.108826,-0.625612 0.263737,-1.578495 0.344248,-2.117478 0.146169,-0.97857 0.14877,-0.979623 1.790921,-0.724076 l 1.644541,0.255916 0.322635,2.021107 c 0.557181,3.490418 1.021756,6.325074 1.333811,8.138452 0.08284,0.481387 0.25034,1.503536 0.372225,2.271444 0.257589,1.622896 0.949555,6.007899 1.266613,8.02655 0.120567,0.767625 0.300768,1.761717 0.400443,2.209079 0.425057,1.907716 0.612366,1.885738 -5.280793,0.619389 -3.31971,-0.713355 -5.462025,-1.299485 -5.462025,-1.494402 z m 17.324091,-5.045136 c -0.51591,-1.030063 -0.938019,-2.017161 -0.938019,-2.193547 0,-0.176362 0.404489,-1.061313 0.898862,-1.966512 1.421475,-2.602771 2.370298,-5.569694 3.100112,-9.693929 0.413333,-2.335773 0.462448,-10.501854 0.07797,-12.963382 -0.661932,-4.237844 -1.565264,-7.555307 -3.008731,-11.049468 -0.492275,-1.191636 -0.938277,-2.363665 -0.991117,-2.60451 -0.05284,-0.240843 0.341236,-1.132488 0.87573,-1.981434 l 0.971806,-1.543539 0.735672,1.436237 c 0.816212,1.593466 2.549441,6.231456 3.055792,8.177062 0.704831,2.708258 0.83879,3.415825 1.462791,7.726488 0.400066,2.763701 0.452177,10.794569 0.08617,13.279653 -0.331491,2.250696 -1.147561,6.268304 -1.552963,7.645384 -0.706406,2.399532 -3.282201,7.723367 -3.693942,7.634891 -0.07816,-0.0168 -0.56422,-0.873317 -1.08013,-1.903394 z M 30.192189,81.065846 C 27.294152,74.383301 25.65063,64.36207 26.232276,56.9206 c 0.403387,-5.160851 0.995057,-8.335035 2.228476,-11.955287 0.775915,-2.277422 2.520987,-5.957398 2.796922,-5.898104 0.194836,0.04187 2.054118,3.593631 2.054118,3.923955 0,0.141083 -0.466891,1.309296 -1.037533,2.596032 -2.124495,4.790515 -3.000305,9.189997 -3.005305,15.096644 -0.0017,2.017856 0.09513,4.314404 0.215208,5.103445 0.553289,3.63585 0.710148,4.402625 1.444738,7.062177 0.783399,2.836273 1.34837,4.46659 2.023374,5.838747 0.197735,0.401952 0.359518,0.936291 0.359518,1.187414 0,0.49076 -1.771489,3.418509 -2.034265,3.362044 -0.08703,-0.0187 -0.575425,-0.996024 -1.085338,-2.171821 z M 52.165113,79.53423 c -0.784139,-1.516812 -0.800927,-1.967476 -0.116508,-3.127582 0.664152,-1.125771 1.790367,-4.840891 2.081496,-6.866382 0.2809,-1.954314 0.281991,-4.861693 0.0026,-6.949502 -0.279037,-2.085234 -1.311061,-5.910061 -2.044429,-7.576932 -0.313357,-0.71223 -0.569744,-1.49687 -0.569744,-1.743643 0,-0.635515 1.228537,-2.842307 1.544533,-2.774405 0.611077,0.131311 2.627896,5.944872 3.304575,9.525566 0.50048,2.64832 0.569398,8.810849 0.12871,11.50881 -0.543783,3.32914 -1.59558,6.489199 -2.9275,8.795485 -0.44361,0.768128 -0.660819,0.64567 -1.403741,-0.791417 z M 34.909851,74.830957 c -0.801258,-1.995285 -1.838041,-5.729935 -2.215664,-7.981133 -0.4322,-2.576561 -0.382418,-9.68832 0.08245,-11.7789 0.524874,-2.360446 1.258539,-4.568477 2.078794,-6.256318 l 0.724203,-1.490198 0.914337,1.720302 0.914335,1.720302 -0.603729,1.340844 c -1.45956,3.241605 -1.869328,5.389045 -1.87222,9.811634 -0.0027,4.211787 0.587701,7.340262 2.133569,11.304598 0.281886,0.722871 0.247973,0.855123 -0.512123,1.997115 -0.447697,0.672642 -0.859044,1.213284 -0.914102,1.201453 -0.05506,-0.01183 -0.383491,-0.727188 -0.729851,-1.589699 z m 13.088204,-3.509002 -0.957646,-1.891467 0.377679,-0.846046 c 1.189306,-2.664184 1.123052,-5.487405 -0.199042,-8.481362 -0.153206,-0.346949 -0.07858,-0.692272 0.274431,-1.269884 1.543847,-2.526094 1.626012,-2.563854 2.276419,-1.046128 1.119198,2.611654 1.402607,4.113459 1.410763,7.475807 0.0051,2.106488 -0.09164,3.534073 -0.282342,4.166208 -0.50707,1.68077 -1.495949,3.879106 -1.723257,3.83088 -0.120646,-0.02592 -0.650298,-0.897708 -1.177005,-1.938008 z m -9.187327,-2.673216 c -1.031405,-3.2313 -1.27745,-6.216136 -0.744365,-9.030101 0.283738,-1.49775 1.289983,-4.311951 1.524246,-4.262907 0.05982,0.01253 0.55796,0.879363 1.10699,1.92632 l 0.998238,1.903554 -0.380989,1.097172 c -0.467833,1.347255 -0.489594,4.51199 -0.04145,6.028659 0.304266,1.02974 0.293143,1.084768 -0.506185,2.504107 -0.449508,0.798183 -0.968119,1.417657 -1.15247,1.376621 -0.18435,-0.04111 -0.546156,-0.735587 -0.804012,-1.543423 z m 4.744657,-3.216095 c -0.293331,-0.551887 -0.533329,-1.368939 -0.533329,-1.815657 0,-1.071635 0.858241,-2.282879 1.517229,-2.141273 0.674481,0.144936 1.517228,1.730548 1.517228,2.854633 0,1.098258 -0.837435,2.348643 -1.480447,2.21047 -0.268043,-0.0576 -0.727351,-0.556271 -1.020681,-1.108173 z"
       id="path4887"
       inkscape:connector-curvature="0" /></g></svg>