<?xml version="1.0" encoding="UTF-8" standalone="no"?>
<svg
   xmlns:osb="http://www.openswatchbook.org/uri/2009/osb"
   xmlns:dc="http://purl.org/dc/elements/1.1/"
   xmlns:cc="http://creativecommons.org/ns#"
   xmlns:rdf="http://www.w3.org/1999/02/22-rdf-syntax-ns#"
   xmlns:svg="http://www.w3.org/2000/svg"
   xmlns="http://www.w3.org/2000/svg"
   xmlns:xlink="http://www.w3.org/1999/xlink"
   xmlns:sodipodi="http://sodipodi.sourceforge.net/DTD/sodipodi-0.dtd"
   xmlns:inkscape="http://www.inkscape.org/namespaces/inkscape"
   width="850"
   height="250"
   viewBox="0 0 850 833.33333"
   id="svg2"
   version="1.1"
   inkscape:version="0.91 r13725"
   sodipodi:docname="first-page.svg">
  <defs
     id="defs4">
    <linearGradient
       inkscape:collect="always"
       id="linearGradient5772">
      <stop
         style="stop-color:#b3b3b3;stop-opacity:1"
         offset="0.5"
         id="stop5774" />
      <stop
         style="stop-color:#f9f9f9;stop-opacity:1"
         offset="1"
         id="stop5776" />
    </linearGradient>
    <linearGradient
       id="linearGradient4299"
       osb:paint="solid">
      <stop
         style="stop-color:#c38300;stop-opacity:1;"
         offset="0"
         id="stop4301" />
    </linearGradient>
    <marker
       inkscape:stockid="Arrow1Lstart"
       orient="auto"
       refY="0"
       refX="0"
       id="Arrow1Lstart"
       style="overflow:visible"
       inkscape:isstock="true">
      <path
         id="path4178"
         d="M 0,0 5,-5 -12.5,0 5,5 0,0 Z"
         style="fill:#000000;fill-opacity:1;fill-rule:evenodd;stroke:#000000;stroke-width:1pt;stroke-opacity:1"
         transform="matrix(0.8,0,0,0.8,10,0)"
         inkscape:connector-curvature="0" />
    </marker>
    <linearGradient
       inkscape:collect="always"
       xlink:href="#linearGradient5772"
       id="linearGradient5755"
       x1="-981.07635"
       y1="-21.766647"
       x2="1824.7086"
       y2="-21.766647"
       gradientUnits="userSpaceOnUse"
       gradientTransform="matrix(1,0,0,1.0756719,-3.367175,-177.79965)" />
    <linearGradient
       inkscape:collect="always"
       xlink:href="#linearGradient5772"
       id="linearGradient5782"
       x1="-970.97485"
       y1="-267.57043"
       x2="1834.8101"
       y2="-267.57043"
       gradientUnits="userSpaceOnUse"
       gradientTransform="matrix(1,0,0,1.0756719,-13.4687,86.604565)" />
    <linearGradient
       inkscape:collect="always"
       xlink:href="#linearGradient4218"
       id="linearGradient5323"
       gradientUnits="userSpaceOnUse"
       x1="-1154.8866"
       y1="63.822178"
       x2="-988.76434"
       y2="63.822178" />
    <linearGradient
       id="linearGradient4218"
       inkscape:collect="always">
      <stop
         id="stop4220"
         offset="0"
         style="stop-color:#000080;stop-opacity:1;" />
      <stop
         id="stop4222"
         offset="1"
         style="stop-color:#0000e4;stop-opacity:1" />
    </linearGradient>
    <linearGradient
       inkscape:collect="always"
       xlink:href="#linearGradient4218"
       id="linearGradient4230"
       gradientUnits="userSpaceOnUse"
       x1="-1154.8866"
       y1="63.822178"
       x2="-988.76434"
       y2="63.822178"
       gradientTransform="translate(15.149089,3.0053027)" />
    <linearGradient
       inkscape:collect="always"
       xlink:href="#linearGradient4218"
       id="linearGradient4232"
       gradientUnits="userSpaceOnUse"
       x1="-1154.8866"
       y1="63.822178"
       x2="-988.76434"
       y2="63.822178" />
  </defs>
  <sodipodi:namedview
     id="base"
     pagecolor="#ffffff"
     bordercolor="#666666"
     borderopacity="1.0"
     inkscape:pageopacity="0.0"
     inkscape:pageshadow="2"
     inkscape:zoom="1.6882353"
     inkscape:cx="425"
     inkscape:cy="125"
     inkscape:document-units="px"
     inkscape:current-layer="layer1"
     showgrid="false"
     inkscape:window-width="1920"
     inkscape:window-height="1025"
     inkscape:window-x="0"
     inkscape:window-y="0"
     inkscape:window-maximized="1" />
  <metadata
     id="metadata7">
    <rdf:RDF>
      <cc:Work
         rdf:about="">
        <dc:format>image/svg+xml</dc:format>
        <dc:type
           rdf:resource="http://purl.org/dc/dcmitype/StillImage" />
        <dc:title />
      </cc:Work>
    </rdf:RDF>
  </metadata>
  <g
     inkscape:label="Layer 1"
     inkscape:groupmode="layer"
     id="layer1"
     transform="translate(0,633.33331)">
    <rect
       style="fill:url(#linearGradient5755);fill-opacity:1.0;stroke:url(#linearGradient5782);stroke-width:0;stroke-miterlimit:4.0999999;stroke-dasharray:none;stroke-opacity:1"
       id="rect4136"
       width="2805.7849"
       height="380.30743"
       x="-984.44354"
       y="-391.3671"
       ry="0" />
    <path
       style="fill:none;fill-opacity:1;fill-rule:evenodd;stroke:#000000;stroke-width:28.16378212;stroke-linecap:butt;stroke-linejoin:miter;stroke-miterlimit:4.0999999;stroke-dasharray:none;stroke-dashoffset:0;stroke-opacity:1"
       d="m 1554.134,-27.476115 79.5996,-4.73539 2.041,-539.838505 -82.0488,2.36773"
       id="path4162"
       inkscape:connector-curvature="0" />
    <path
       style="fill:none;fill-opacity:1;fill-rule:evenodd;stroke:#0018c3;stroke-width:29.82312584;stroke-linecap:butt;stroke-linejoin:miter;stroke-miterlimit:4.0999999;stroke-dasharray:none;stroke-dashoffset:0;stroke-opacity:1"
       d="m -459.58264,142.68541 -84.02,-4.72391 -2.15432,-538.52983 86.60513,2.36195"
       id="path4162-9"
       inkscape:connector-curvature="0" />
    <g
       transform="matrix(0.81006849,0,0,0.81006849,-1011.6155,-860.19505)"
       id="g5408">
      <g
         id="text4194"
         style="font-style:normal;font-weight:normal;font-size:226.35958862px;line-height:125%;font-family:sans-serif;letter-spacing:0px;word-spacing:0px;fill:url(#linearGradient4232);fill-opacity:1;stroke:none;stroke-width:1px;stroke-linecap:butt;stroke-linejoin:miter;stroke-opacity:1"
         transform="matrix(1.6297527,0,0,2.7384118,2018.587,636.89105)" />
      <g
         id="text4194-7"
         style="font-style:normal;font-weight:normal;font-size:226.35958862px;line-height:125%;font-family:sans-serif;letter-spacing:0px;word-spacing:0px;fill:url(#linearGradient5323);fill-opacity:1;stroke:none;stroke-width:1px;stroke-linecap:butt;stroke-linejoin:miter;stroke-opacity:1"
         transform="matrix(1.6297527,0,0,2.7384118,2017.8421,635.15012)" />
      <g
         id="g4203">
        <path
           d="m 458.75637,687.29705 23.87423,35.2368 c -29.22472,-6.55846 -83.51401,-9.74219 -109.43506,-12.96179 -25.92106,-3.21961 -50.95269,-4.82941 -75.09485,-4.82941 -41.93113,0 -74.33245,3.81582 -97.20397,11.44748 -22.6174,7.63166 -33.92609,18.48292 -33.92609,32.55379 0,11.80522 7.49678,20.74857 22.49033,26.83005 15.24767,5.96223 43.96414,10.79164 86.14939,14.48823 l 46.50544,4.47168 c 57.43292,5.12752 99.74526,14.19011 126.93696,27.18778 27.44583,12.87842 41.16873,30.16888 41.16873,51.87142 0,25.87608 -18.55133,45.49183 -55.65402,58.84724 -36.84858,13.35539 -90.97786,20.03309 -162.38783,20.03309 -26.93758,0 -55.65403,-1.43094 -86.1494,-4.29281 -30.24124,-2.86186 -46.84677,-7.09505 -79.37517,-12.69955 L 91.875764,898.27672 c 31.257776,8.22789 61.880206,14.42861 91.867296,18.60216 29.98713,4.17356 59.46597,6.26034 88.43657,6.26034 43.96414,0 77.89023,-4.05431 101.77827,-12.16295 23.88805,-8.10864 35.83205,-19.67537 35.83205,-34.7002 0,-13.11691 -8.64034,-23.37194 -25.92106,-30.76511 -17.02659,-7.39317 -45.10772,-12.93804 -84.24343,-16.63463 l -46.88663,-4.29281 C 195.30592,819.21751 153.75597,810.81076 128.08904,799.36328 102.42209,787.91579 89.588624,771.99663 89.588624,751.6058 c 0,-23.61045 17.661906,-42.21261 52.985716,-55.8065 35.57792,-13.59389 84.49756,-20.39084 146.75894,-20.39084 26.68346,0 53.87513,1.13283 81.57508,3.39848 27.69996,2.26564 58.87742,3.95881 87.84801,8.49011 z"
           style="font-style:normal;font-weight:normal;font-size:253.13763428px;line-height:125%;font-family:sans-serif;letter-spacing:0px;word-spacing:0px;opacity:1;fill:none;fill-opacity:1;stroke:#000000;stroke-width:2.11256576px;stroke-linecap:butt;stroke-linejoin:miter;stroke-opacity:1"
           id="path4160"
           inkscape:connector-curvature="0"
           sodipodi:nodetypes="ccsscsccccscscccsssscccsscssc" />
        <path
           style="font-style:normal;font-weight:normal;font-size:226.35958862px;line-height:125%;font-family:sans-serif;letter-spacing:0px;word-spacing:0px;fill:url(#linearGradient4230);fill-opacity:1;stroke:none;stroke-width:1px;stroke-linecap:butt;stroke-linejoin:miter;stroke-opacity:1"
           d="m -1112.8568,28.473661 -3.5197,-12.17903 -19.7265,2.410594 -1.8475,-6.87281 -2.1358,-9.5986492 17.8955,-5.8121832 5.7774,19.8616064 c 8.5547,28.306991 15.3917,56.795886 22.4341,85.249811 l 8.7751,-33.132836 17.5013,0.787167 3.4857,-12.589113 -17.4489,-1.295579 10.2072,-68.844799 23.9844,0 5.252,27.829004 -11.1324,0.228298 -2.7028,10.080776 16.6253,0.293016 20.1695,76.644066 7.1375,-27.240873 c 7.0491,0.994869 13.5987,2.524925 18.8379,5.458793 l 4.5078,-17.233262 -19.5951,-2.540137 17.9105,-62.1028926 16.84906,7.057651 -15.02266,57.4243846 -4.5417,17.361006 -16.5121,58.82193 -17.1533,2.43018 -6.9253,-26.66938 12.5844,-0.65032 1.9865,-11.55928 -17.4269,1.33088 -19.9948,-76.162917 -30.933,115.994377 -19.799,-3.52883 -4.2887,-25.58417 14.4252,0.1579 2.4379,-9.95775 -19.5146,-1.09815 -17.6929,-68.535261 c 1.8279,-1.453469 6.8755,-3.229615 8.1516,-3.656639 1.2762,-0.427024 4.8533,-1.513462 10.9778,-2.576579 z"
           id="path4225"
           inkscape:connector-curvature="0"
           sodipodi:nodetypes="ccccccccccccccccccccccccccccccccccccccccczc"
           transform="matrix(1.6297527,0,0,2.7384118,2018.587,636.89105)" />
        <ellipse
           style="opacity:1;fill:none;fill-opacity:1;stroke:#000000;stroke-width:7;stroke-miterlimit:2;stroke-dasharray:none;stroke-opacity:1"
           id="path4278"
           cx="289.01694"
           cy="816.27917"
           rx="214.46011"
           ry="217.30228" />
      </g>
    </g>
  </g>
</svg>
