<?xml version="1.0" encoding="UTF-8" standalone="no"?>
<!-- Created with Inkscape (http://www.inkscape.org/) -->

<svg
   xmlns:dc="http://purl.org/dc/elements/1.1/"
   xmlns:cc="http://creativecommons.org/ns#"
   xmlns:rdf="http://www.w3.org/1999/02/22-rdf-syntax-ns#"
   xmlns:svg="http://www.w3.org/2000/svg"
   xmlns="http://www.w3.org/2000/svg"
   xmlns:sodipodi="http://sodipodi.sourceforge.net/DTD/sodipodi-0.dtd"
   xmlns:inkscape="http://www.inkscape.org/namespaces/inkscape"
   id="svg3977"
   sodipodi:docname="pitr-Toy-train-icon.svg"
   viewBox="0 0 256 128"
   sodipodi:version="0.32"
   version="1.0"
   inkscape:output_extension="org.inkscape.output.svg.inkscape"
   inkscape:version="0.91 r13725"
   width="256"
   height="128">
  <defs
     id="defs22" />
  <sodipodi:namedview
     id="base"
     bordercolor="#666666"
     inkscape:pageshadow="2"
     guidetolerance="2"
     pagecolor="#ffffff"
     gridtolerance="10000"
     inkscape:snap-global="false"
     inkscape:window-width="1724"
     inkscape:zoom="2.9775825"
     objecttolerance="10000"
     inkscape:window-height="720"
     showgrid="true"
     borderopacity="1.0"
     inkscape:current-layer="layer1"
     inkscape:cx="34.014956"
     inkscape:cy="64"
     inkscape:window-y="1405"
     inkscape:window-x="187"
     borderlayer="true"
     inkscape:pageopacity="0.0"
     inkscape:document-units="px"
     inkscape:window-maximized="0">
    <inkscape:grid
       id="grid3987"
       visible="true"
       type="xygrid"
       enabled="true"
       empspacing="4" />
  </sodipodi:namedview>
  <g
     id="layer1"
     inkscape:label="Layer 1"
     inkscape:groupmode="layer">
    <path
       id="path2399"
       style="fill:#0000ff;fill-rule:evenodd;stroke:#000000;stroke-width:12;stroke-linecap:round;stroke-linejoin:round"
       d="m 195.92604,20.290042 c -2.216,0 -4,1.784 -4,4 l 0,3.344 c 0,2.216 1.784,4 4,4 l 1.25,0 c -0.748,0.504 -1.25,1.368 -1.25,2.344 l 0,24.937 c 0,-2.216 -1.784,-4 -4,-4 l -20,0 0,-21.125 c 0,-1.195 -0.961,-2.156 -2.156,-2.156 l -11.938,0 c -1.195,0 -2.156,0.961 -2.156,2.156 l 0,21.125 -11.344,0 c -2.216,0 -4,1.784 -4,4 l 0,20.719 c 0,2.216 1.784,4 4,4 l -0.406,0 c -2.216,0 -4,1.784 -4,4 l 0,8 c 0,2.22 1.784,4 4,4 l 2.5,0 0,0.12 c 0,6.569998 5.31,11.909998 11.875,11.909998 6.565,0 11.906,-5.34 11.906,-11.909998 0,-0.04 0.001,-0.08 0,-0.12 l 3.75,0 0,0.12 c 0,6.569998 5.342,11.909998 11.907,11.909998 6.564,0 11.874,-5.34 11.874,-11.909998 0,-0.04 10e-4,-0.08 0,-0.12 l 4.126,0 c 1.276,6.969998 7.378,12.249998 14.718,12.249998 7.34,0 13.444,-5.28 14.724,-12.249998 l 0.62,0 c 2.22,0 4,-1.78 4,-4 l 0,-8 c 0,-2.216 -1.78,-4 -4,-4 l 0.34,0 c 1.56,0 2.82,-1.251 2.82,-2.812 l 0,-46.844 c 0,-0.976 -0.51,-1.84 -1.25,-2.344 l 2.25,0 c 2.21,0 4,-1.784 4,-4 l 0,-3.344 c 0,-2.216 -1.79,-4 -4,-4 l -40.16,0 z"
       inkscape:connector-curvature="0" />
    <path
       id="path2397"
       style="fill:#0000ff;fill-rule:evenodd;stroke:#000000;stroke-width:12;stroke-linecap:round;stroke-linejoin:round"
       d="m 205.14504,39.634042 21.061,0 c 0.98,0 1.75,0.77 1.75,1.75 l 0,20.25 c 0,0.98 -0.77,1.781 -1.75,1.781 l -21.061,0 c -0.98,0 -1.75,-0.801 -1.75,-1.781 l 0,-20.25 c 0,-0.98 0.77,-1.75 1.75,-1.75 z"
       inkscape:connector-curvature="0" />
    <path
       id="path2395"
       style="fill:#0000ff;fill-rule:evenodd;stroke:#000000;stroke-width:12;stroke-linecap:round;stroke-linejoin:round"
       d="m 195.92604,79.634042 0,1.188 c 0,1.561 1.251,2.812 2.812,2.812 l -6.812,0 c 2.216,0 4,-1.784 4,-4 z"
       inkscape:connector-curvature="0" />
    <rect
       id="rect4509"
       style="fill:#0000ff;fill-rule:evenodd;stroke:#000000;stroke-width:3;stroke-linecap:round;stroke-linejoin:round"
       rx="2.1584001"
       transform="matrix(0,1,-1,0,0,0)"
       height="16.259001"
       width="51.800999"
       y="-171.92604"
       x="31.634043" />
    <rect
       id="rect3989"
       style="fill:#e9c6af;fill-rule:evenodd;stroke:#000000;stroke-width:3;stroke-linecap:round;stroke-linejoin:round"
       rx="4"
       height="16"
       width="96"
       y="83.634041"
       x="139.92604" />
    <rect
       id="rect4500"
       style="fill:#00ff00;fill-rule:evenodd;stroke:#000000;stroke-width:3;stroke-linecap:round;stroke-linejoin:round"
       rx="4"
       height="28.73"
       width="55.591999"
       y="54.904041"
       x="140.33405" />
    <rect
       id="rect4504"
       style="fill:#ff0000;fill-rule:evenodd;stroke:#000000;stroke-width:3;stroke-linecap:round;stroke-linejoin:round"
       rx="4"
       height="11.333"
       width="48.157001"
       y="19.294043"
       x="191.92604" />
    <path
       id="rect4511"
       style="fill:#ffff00;fill-rule:evenodd;stroke:#000000;stroke-width:3;stroke-linecap:round;stroke-linejoin:round"
       d="m 198.73804,31.165042 c -1.561,0 -2.812,1.252 -2.812,2.813 l 0,46.844 c 0,1.561 1.251,2.812 2.812,2.812 l 33.528,0 c 1.56,0 2.82,-1.251 2.82,-2.812 l 0,-46.844 c 0,-1.561 -1.26,-2.813 -2.82,-2.813 l -33.528,0 z m 6.407,8.469 21.061,0 c 0.98,0 1.75,0.77 1.75,1.75 l 0,20.25 c 0,0.98 -0.77,1.781 -1.75,1.781 l -21.061,0 c -0.98,0 -1.75,-0.801 -1.75,-1.781 l 0,-20.25 c 0,-0.98 0.77,-1.75 1.75,-1.75 z"
       inkscape:connector-curvature="0" />
    <circle
       id="path4513"
       style="fill:#ff0000;fill-rule:evenodd;stroke:#000000;stroke-width:4.00003672;stroke-linecap:round;stroke-linejoin:round"
       cx="216.58414"
       cy="96.919044"
       r="14.973" />
    <circle
       id="path4515"
       style="fill:#000000;fill-rule:evenodd"
       cx="216.5826"
       cy="96.916443"
       r="7.4863601" />
    <circle
       id="path4523"
       style="fill:#ff0000;fill-rule:evenodd;stroke:#000000;stroke-width:3.99997497;stroke-linecap:round;stroke-linejoin:round"
       cx="158.31433"
       cy="99.771545"
       r="11.8923" />
    <circle
       id="path4525"
       style="fill:#000000;fill-rule:evenodd"
       cx="158.31342"
       cy="99.77124"
       r="5.9460802" />
    <circle
       id="path4529"
       style="fill:#ff0000;fill-rule:evenodd;stroke:#000000;stroke-width:3.99997497;stroke-linecap:round;stroke-linejoin:round"
       cx="185.85333"
       cy="99.771545"
       r="11.8923" />
    <circle
       id="path4531"
       style="fill:#000000;fill-rule:evenodd"
       cx="185.85272"
       cy="99.77124"
       r="5.9460802" />
    <rect
       id="rect3989-1"
       style="fill:#e9c6af;fill-rule:evenodd;stroke:#000000;stroke-width:3;stroke-linecap:round;stroke-linejoin:round"
       rx="4"
       height="16"
       width="96"
       y="85.587936"
       x="11.108355" />
    <circle
       id="path4523-0"
       style="fill:#ff0000;fill-rule:evenodd;stroke:#000000;stroke-width:3.99997497;stroke-linecap:round;stroke-linejoin:round"
       cx="29.496645"
       cy="101.72545"
       r="11.8923" />
    <circle
       id="path4525-9"
       style="fill:#000000;fill-rule:evenodd"
       cx="29.495729"
       cy="101.72514"
       r="5.9460802" />
    <circle
       id="path4529-3"
       style="fill:#ff0000;fill-rule:evenodd;stroke:#000000;stroke-width:3.99997497;stroke-linecap:round;stroke-linejoin:round"
       cx="87.035645"
       cy="101.72545"
       r="11.8923" />
    <circle
       id="path4531-6"
       style="fill:#000000;fill-rule:evenodd"
       cx="87.035034"
       cy="101.72514"
       r="5.9460802" />
    <path
       style="fill:none;fill-rule:evenodd;stroke:#000000;stroke-width:4;stroke-linecap:butt;stroke-linejoin:miter;stroke-opacity:1;stroke-miterlimit:4;stroke-dasharray:none"
       d="m 106.46221,93.072336 28.88249,-0.335843 0,1.007529"
       id="path4221"
       inkscape:connector-curvature="0" />
  </g>
  <metadata
     id="metadata20">
    <rdf:RDF>
      <cc:Work>
        <dc:format>image/svg+xml</dc:format>
        <dc:type
           rdf:resource="http://purl.org/dc/dcmitype/StillImage" />
        <cc:license
           rdf:resource="http://creativecommons.org/publicdomain/zero/1.0/" />
        <dc:publisher>
          <cc:Agent
             rdf:about="http://openclipart.org/">
            <dc:title>Openclipart</dc:title>
          </cc:Agent>
        </dc:publisher>
        <dc:title>Toy train icon</dc:title>
        <dc:date>2009-03-18T12:53:11</dc:date>
        <dc:description />
        <dc:source>https://openclipart.org/detail/22533/toy-train-icon-by-pitr</dc:source>
        <dc:creator>
          <cc:Agent>
            <dc:title>pitr</dc:title>
          </cc:Agent>
        </dc:creator>
        <dc:subject>
          <rdf:Bag>
            <rdf:li>choochoo</rdf:li>
            <rdf:li>contour</rdf:li>
            <rdf:li>icon</rdf:li>
            <rdf:li>locomotive</rdf:li>
            <rdf:li>toy</rdf:li>
            <rdf:li>train</rdf:li>
            <rdf:li>wooden</rdf:li>
          </rdf:Bag>
        </dc:subject>
      </cc:Work>
      <cc:License
         rdf:about="http://creativecommons.org/publicdomain/zero/1.0/">
        <cc:permits
           rdf:resource="http://creativecommons.org/ns#Reproduction" />
        <cc:permits
           rdf:resource="http://creativecommons.org/ns#Distribution" />
        <cc:permits
           rdf:resource="http://creativecommons.org/ns#DerivativeWorks" />
      </cc:License>
    </rdf:RDF>
  </metadata>
</svg>
