<?xml version="1.0" encoding="UTF-8" standalone="no"?>
<svg
   xmlns:osb="http://www.openswatchbook.org/uri/2009/osb"
   xmlns:dc="http://purl.org/dc/elements/1.1/"
   xmlns:cc="http://creativecommons.org/ns#"
   xmlns:rdf="http://www.w3.org/1999/02/22-rdf-syntax-ns#"
   xmlns:svg="http://www.w3.org/2000/svg"
   xmlns="http://www.w3.org/2000/svg"
   xmlns:xlink="http://www.w3.org/1999/xlink"
   xmlns:sodipodi="http://sodipodi.sourceforge.net/DTD/sodipodi-0.dtd"
   xmlns:inkscape="http://www.inkscape.org/namespaces/inkscape"
   width="850"
   height="250"
   viewBox="0 0 850 833.33333"
   id="svg2"
   version="1.1"
   inkscape:version="0.91 r13725"
   sodipodi:docname="first-page.svg">
  <defs
     id="defs4">
    <linearGradient
       inkscape:collect="always"
       id="linearGradient5772">
      <stop
         style="stop-color:#b3b3b3;stop-opacity:1"
         offset="0.5"
         id="stop5774" />
      <stop
         style="stop-color:#f9f9f9;stop-opacity:1"
         offset="1"
         id="stop5776" />
    </linearGradient>
    <linearGradient
       inkscape:collect="always"
       id="linearGradient5749">
      <stop
         style="stop-color:#e6e6e6;stop-opacity:1"
         offset="0.7"
         id="stop5751" />
      <stop
         style="stop-color:#f9f9f9;stop-opacity:1"
         offset="1"
         id="stop5753" />
    </linearGradient>
    <linearGradient
       id="linearGradient4299"
       osb:paint="solid">
      <stop
         style="stop-color:#c38300;stop-opacity:1;"
         offset="0"
         id="stop4301" />
    </linearGradient>
    <marker
       inkscape:stockid="Arrow1Lstart"
       orient="auto"
       refY="0"
       refX="0"
       id="Arrow1Lstart"
       style="overflow:visible"
       inkscape:isstock="true">
      <path
         id="path4178"
         d="M 0,0 5,-5 -12.5,0 5,5 0,0 Z"
         style="fill:#000000;fill-opacity:1;fill-rule:evenodd;stroke:#000000;stroke-width:1pt;stroke-opacity:1"
         transform="matrix(0.8,0,0,0.8,10,0)"
         inkscape:connector-curvature="0" />
    </marker>
    <linearGradient
       inkscape:collect="always"
       xlink:href="#linearGradient5749"
       id="linearGradient5755"
       x1="-981.07635"
       y1="-21.766647"
       x2="1824.7086"
       y2="-21.766647"
       gradientUnits="userSpaceOnUse"
       gradientTransform="matrix(1,0,0,1.0756719,-3.367175,-177.79965)" />
    <linearGradient
       inkscape:collect="always"
       xlink:href="#linearGradient5772"
       id="linearGradient5782"
       x1="-970.97485"
       y1="-267.57043"
       x2="1834.8101"
       y2="-267.57043"
       gradientUnits="userSpaceOnUse"
       gradientTransform="matrix(1,0,0,1.0756719,-13.4687,86.604565)" />
    <linearGradient
       inkscape:collect="always"
       xlink:href="#linearGradient4218"
       id="linearGradient5323"
       gradientUnits="userSpaceOnUse"
       x1="-1154.8866"
       y1="63.822178"
       x2="-988.76434"
       y2="63.822178" />
    <linearGradient
       id="linearGradient4218"
       inkscape:collect="always">
      <stop
         id="stop4220"
         offset="0"
         style="stop-color:#000080;stop-opacity:1;" />
      <stop
         id="stop4222"
         offset="1"
         style="stop-color:#0000e4;stop-opacity:1" />
    </linearGradient>
    <linearGradient
       inkscape:collect="always"
       xlink:href="#linearGradient4218"
       id="linearGradient4230"
       gradientUnits="userSpaceOnUse"
       x1="-1154.8866"
       y1="63.822178"
       x2="-988.76434"
       y2="63.822178" />
    <linearGradient
       inkscape:collect="always"
       xlink:href="#linearGradient4218"
       id="linearGradient4232"
       gradientUnits="userSpaceOnUse"
       x1="-1154.8866"
       y1="63.822178"
       x2="-988.76434"
       y2="63.822178" />
  </defs>
  <sodipodi:namedview
     id="base"
     pagecolor="#ffffff"
     bordercolor="#666666"
     borderopacity="1.0"
     inkscape:pageopacity="0.0"
     inkscape:pageshadow="2"
     inkscape:zoom="5.6"
     inkscape:cx="44.578716"
     inkscape:cy="118.31363"
     inkscape:document-units="px"
     inkscape:current-layer="text4194"
     showgrid="false"
     inkscape:window-width="1920"
     inkscape:window-height="1025"
     inkscape:window-x="0"
     inkscape:window-y="0"
     inkscape:window-maximized="1" />
  <metadata
     id="metadata7">
    <rdf:RDF>
      <cc:Work
         rdf:about="">
        <dc:format>image/svg+xml</dc:format>
        <dc:type
           rdf:resource="http://purl.org/dc/dcmitype/StillImage" />
        <dc:title />
      </cc:Work>
    </rdf:RDF>
  </metadata>
  <g
     inkscape:label="Layer 1"
     inkscape:groupmode="layer"
     id="layer1"
     transform="translate(0,633.33331)">
    <rect
       style="fill:url(#linearGradient5755);fill-opacity:1;stroke:url(#linearGradient5782);stroke-width:0;stroke-miterlimit:4.0999999;stroke-dasharray:none;stroke-opacity:1"
       id="rect4136"
       width="2805.7849"
       height="380.30743"
       x="-984.44354"
       y="-391.3671"
       ry="0" />
    <path
       style="fill:none;fill-opacity:1;fill-rule:evenodd;stroke:#000000;stroke-width:28.16378212;stroke-linecap:butt;stroke-linejoin:miter;stroke-miterlimit:4.0999999;stroke-dasharray:none;stroke-dashoffset:0;stroke-opacity:1"
       d="m 1554.134,-27.476115 79.5996,-4.73539 2.041,-539.838505 -82.0488,2.36773"
       id="path4162"
       inkscape:connector-curvature="0" />
    <path
       style="fill:none;fill-opacity:1;fill-rule:evenodd;stroke:#0018c3;stroke-width:29.82312584;stroke-linecap:butt;stroke-linejoin:miter;stroke-miterlimit:4.0999999;stroke-dasharray:none;stroke-dashoffset:0;stroke-opacity:1"
       d="m -459.58264,142.68541 -84.02,-4.72391 -2.15432,-538.52983 86.60513,2.36195"
       id="path4162-9"
       inkscape:connector-curvature="0" />
    <g
       transform="matrix(0.81006849,0,0,0.81006849,-1011.6155,-860.19505)"
       id="g5408">
      <path
         sodipodi:nodetypes="ccsscsccccscscccsssscccsscssc"
         inkscape:connector-curvature="0"
         id="path4160"
         style="font-style:normal;font-weight:normal;font-size:253.13763428px;line-height:125%;font-family:sans-serif;letter-spacing:0px;word-spacing:0px;opacity:1;fill:none;fill-opacity:1;stroke:#000000;stroke-width:1px;stroke-linecap:butt;stroke-linejoin:miter;stroke-opacity:1"
         d="m -513.78406,29.14503 7.74127,24.349665 c -9.47618,-4.532087 -27.0796,-6.732137 -35.48456,-8.95698 -8.40496,-2.224843 -16.52152,-3.337264 -24.34967,-3.337264 -13.59626,0 -24.10246,2.63685 -31.5186,7.910551 -7.33374,5.273701 -11.00061,12.772244 -11.00061,22.49563 0,8.157756 2.43085,14.337874 7.29254,18.540354 4.94409,4.120079 14.25547,7.457343 27.93413,10.011794 l 15.07949,3.09006 c 18.62275,3.54327 32.34262,9.80579 41.15959,18.78756 8.89937,8.89937 13.34905,20.84759 13.34905,35.84468 0,17.88114 -6.01531,31.4362 -18.04594,40.66518 -11.94823,9.22897 -29.49977,13.84346 -52.65461,13.84346 -8.73457,0 -18.04594,-0.98882 -27.93413,-2.96646 -9.80579,-1.97763 -15.19017,-4.90289 -25.73757,-8.77576 l -4.79222,-25.70929 c 10.1354,5.68571 20.06479,9.97059 29.78817,12.85464 9.72339,2.88405 19.28197,4.32608 28.67575,4.32608 14.25547,0 25.25608,-2.80165 33.00183,-8.40496 7.74575,-5.60331 11.61862,-13.59626 11.61862,-23.97886 0,-9.06417 -2.80165,-16.1507 -8.40496,-21.2596 -5.52091,-5.1089 -14.62628,-8.94057 -27.31612,-11.49502 l -15.20309,-2.96646 c -18.62275,-3.70807 -32.09541,-9.51738 -40.41797,-17.42793 -8.32256,-7.910551 -12.48384,-18.911161 -12.48384,-33.00183 0,-16.315512 5.72691,-29.170158 17.18073,-38.563937 11.53622,-9.393779 27.39852,-14.090669 47.58691,-14.090669 8.65217,0 17.46913,0.782815 26.4509,2.348445 8.98177,1.56563 19.09113,2.735661 28.48491,5.866921 z"
         transform="matrix(3.0840192,0,0,1.4471162,2018.587,636.89105)" />
      <g
         id="text4194"
         style="font-style:normal;font-weight:normal;font-size:226.35958862px;line-height:125%;font-family:sans-serif;letter-spacing:0px;word-spacing:0px;fill:url(#linearGradient4232);fill-opacity:1;stroke:none;stroke-width:1px;stroke-linecap:butt;stroke-linejoin:miter;stroke-opacity:1"
         transform="matrix(1.6297527,0,0,2.7384118,2018.587,636.89105)">
        <path
           sodipodi:nodetypes="ccccccccccccccccccccccccccccccccccccccccczc"
           inkscape:connector-curvature="0"
           id="path4225"
           d="m -1128.0059,25.468358 -3.5197,-12.17903 -19.7265,2.410594 -1.8475,-6.8728097 -2.1358,-9.59864923 17.8955,-5.81218317 5.7774,19.8616061 c 8.5547,28.306991 15.3917,56.795886 22.4341,85.249814 l 8.7751,-33.132839 17.5013,0.787167 3.4857,-12.589113 -17.4489,-1.295579 10.2072,-68.844799 23.9844,0 5.252,27.829004 -11.1324,0.228298 -2.7028,10.080776 16.6253,0.293016 20.1695,76.644069 7.1375,-27.240876 c 7.0491,0.994869 13.5987,2.524925 18.8379,5.458793 l 4.5078,-17.233262 -19.5951,-2.540137 17.9105,-62.1028923 16.84906,7.057651 -15.02266,57.4243843 -4.5417,17.361006 -16.5121,58.821933 -17.1533,2.43018 -6.9253,-26.66938 12.5844,-0.65032 1.9865,-11.559285 -17.4269,1.330885 -19.9948,-76.16292 -30.933,115.99438 -19.799,-3.52883 -4.2887,-25.58417 14.4252,0.1579 2.4379,-9.95775 -19.5146,-1.09815 -17.6929,-68.535264 c 1.8279,-1.453469 6.8755,-3.229615 8.1516,-3.656639 1.2762,-0.427024 4.8533,-1.513462 10.9778,-2.576579 z"
           style="fill:url(#linearGradient4230);fill-opacity:1;stroke:none;stroke-opacity:1" />
      </g>
      <g
         id="text4194-7"
         style="font-style:normal;font-weight:normal;font-size:226.35958862px;line-height:125%;font-family:sans-serif;letter-spacing:0px;word-spacing:0px;fill:url(#linearGradient5323);fill-opacity:1;stroke:none;stroke-width:1px;stroke-linecap:butt;stroke-linejoin:miter;stroke-opacity:1"
         transform="matrix(1.6297527,0,0,2.7384118,2017.8421,635.15012)" />
      <ellipse
         ry="217.30228"
         rx="214.46011"
         cy="808.04944"
         cx="264.32764"
         id="path4278"
         style="opacity:1;fill:none;fill-opacity:1;stroke:#000000;stroke-width:7;stroke-miterlimit:2;stroke-dasharray:none;stroke-opacity:1" />
    </g>
  </g>
</svg>
