<?xml version="1.0" encoding="UTF-8" standalone="no"?>
<svg
   xmlns:dc="http://purl.org/dc/elements/1.1/"
   xmlns:cc="http://creativecommons.org/ns#"
   xmlns:rdf="http://www.w3.org/1999/02/22-rdf-syntax-ns#"
   xmlns:svg="http://www.w3.org/2000/svg"
   xmlns="http://www.w3.org/2000/svg"
   xmlns:xlink="http://www.w3.org/1999/xlink"
   xmlns:sodipodi="http://sodipodi.sourceforge.net/DTD/sodipodi-0.dtd"
   xmlns:inkscape="http://www.inkscape.org/namespaces/inkscape"
   width="850"
   height="60"
   viewBox="0 0 850 200"
   id="svg2"
   version="1.1"
   inkscape:version="0.91 r13725"
   sodipodi:docname="header.svg">
  <defs
     id="defs4">
    <linearGradient
       id="linearGradient4218"
       inkscape:collect="always">
      <stop
         id="stop4220"
         offset="0"
         style="stop-color:#000080;stop-opacity:1;" />
      <stop
         id="stop4222"
         offset="1"
         style="stop-color:#0000e4;stop-opacity:1" />
    </linearGradient>
    <marker
       inkscape:stockid="Arrow1Lstart"
       orient="auto"
       refY="0"
       refX="0"
       id="Arrow1Lstart"
       style="overflow:visible"
       inkscape:isstock="true">
      <path
         id="path4178"
         d="M 0,0 5,-5 -12.5,0 5,5 0,0 Z"
         style="fill:#000000;fill-opacity:1;fill-rule:evenodd;stroke:#000000;stroke-width:1pt;stroke-opacity:1"
         transform="matrix(0.8,0,0,0.8,10,0)"
         inkscape:connector-curvature="0" />
    </marker>
    <linearGradient
       inkscape:collect="always"
       id="linearGradient4138">
      <stop
         style="stop-color:#000080;stop-opacity:1;"
         offset="0"
         id="stop4140" />
      <stop
         style="stop-color:#000080;stop-opacity:0;"
         offset="1"
         id="stop4142" />
    </linearGradient>
    <linearGradient
       inkscape:collect="always"
       xlink:href="#linearGradient4138"
       id="linearGradient4146"
       x1="82.832512"
       y1="133.1234"
       x2="682.86316"
       y2="133.1234"
       gradientUnits="userSpaceOnUse"
       gradientTransform="matrix(4.6760697,0,0,1,-1368.4071,38.451776)" />
    <linearGradient
       inkscape:collect="always"
       xlink:href="#linearGradient4218"
       id="linearGradient4204"
       x1="-1154.8866"
       y1="63.822178"
       x2="-988.76434"
       y2="63.822178"
       gradientUnits="userSpaceOnUse" />
    <linearGradient
       inkscape:collect="always"
       xlink:href="#linearGradient4218"
       id="linearGradient4243"
       x1="-1154.8866"
       y1="63.822178"
       x2="-988.76434"
       y2="63.822178"
       gradientUnits="userSpaceOnUse" />
    <linearGradient
       inkscape:collect="always"
       xlink:href="#linearGradient4218"
       id="linearGradient4274"
       gradientUnits="userSpaceOnUse"
       x1="-1154.8866"
       y1="63.822178"
       x2="-988.76434"
       y2="63.822178" />
    <linearGradient
       inkscape:collect="always"
       xlink:href="#linearGradient4218"
       id="linearGradient4276"
       gradientUnits="userSpaceOnUse"
       x1="-1154.8866"
       y1="63.822178"
       x2="-988.76434"
       y2="63.822178" />
  </defs>
  <sodipodi:namedview
     id="base"
     pagecolor="#ffffff"
     bordercolor="#666666"
     borderopacity="1.0"
     inkscape:pageopacity="0.0"
     inkscape:pageshadow="2"
     inkscape:zoom="11.2"
     inkscape:cx="58.985838"
     inkscape:cy="36.524871"
     inkscape:document-units="px"
     inkscape:current-layer="layer1"
     showgrid="false"
     inkscape:window-width="1920"
     inkscape:window-height="1025"
     inkscape:window-x="0"
     inkscape:window-y="0"
     inkscape:window-maximized="1" />
  <metadata
     id="metadata7">
    <rdf:RDF>
      <cc:Work
         rdf:about="">
        <dc:format>image/svg+xml</dc:format>
        <dc:type
           rdf:resource="http://purl.org/dc/dcmitype/StillImage" />
        <dc:title />
      </cc:Work>
    </rdf:RDF>
  </metadata>
  <g
     inkscape:label="Layer 1"
     inkscape:groupmode="layer"
     id="layer1">
    <rect
       style="fill:url(#linearGradient4146);fill-opacity:1"
       id="rect4136"
       width="2805.7849"
       height="20.203051"
       x="-981.07635"
       y="161.47368"
       ry="9.6986799" />
    <path
       style="fill:none;fill-opacity:1;fill-rule:evenodd;stroke:#000000;stroke-width:11.10400581;stroke-linecap:butt;stroke-linejoin:miter;stroke-miterlimit:4.0999999;stroke-dasharray:none;stroke-dashoffset:0;stroke-opacity:1"
       d="m 1768.7241,159.56407 32.8388,-1.32352 0.842,-150.8818785 -33.8493,0.6617627"
       id="path4162"
       inkscape:connector-curvature="0" />
    <path
       style="fill:none;fill-opacity:1;fill-rule:evenodd;stroke:#2e5e3c;stroke-width:11.62666607;stroke-linecap:butt;stroke-linejoin:miter;stroke-miterlimit:4.0999999;stroke-dasharray:none;stroke-dashoffset:0;stroke-opacity:1"
       d="m -623.59127,193.51651 -34.58618,-1.37738 -0.19573,-34.65653 -0.10683,-18.91599 -0.58425,-103.449843 35.65033,0.688684"
       id="path4162-9"
       inkscape:connector-curvature="0"
       sodipodi:nodetypes="cccccc" />
    <g
       transform="matrix(1.0969643,0,0,0.51472922,-207.99395,22.507539)"
       style="font-style:normal;font-weight:normal;font-size:253.13763428px;line-height:125%;font-family:sans-serif;letter-spacing:0px;word-spacing:0px;fill:#000000;fill-opacity:1;stroke:none;stroke-width:1px;stroke-linecap:butt;stroke-linejoin:miter;stroke-opacity:1"
       id="text4155">
      <path
         d="m -514.70564,30.323444 0,24.349665 q -14.21427,-6.79813 -26.82171,-10.135394 -12.60744,-3.337264 -24.34967,-3.337264 -20.39439,0 -31.5186,7.910551 -11.00061,7.910551 -11.00061,22.49563 0,12.236634 7.29254,18.540354 7.41614,6.180118 27.93413,10.011794 l 15.07949,3.09006 q 27.93413,5.3149 41.15959,18.78756 13.34905,13.34905 13.34905,35.84468 0,26.82171 -18.04594,40.66518 -17.92235,13.84346 -52.65461,13.84346 -13.10185,0 -27.93413,-2.96646 -14.70868,-2.96645 -30.52979,-8.77576 l 0,-25.70929 q 15.2031,8.52856 29.78817,12.85464 14.58508,4.32608 28.67575,4.32608 21.38321,0 33.00183,-8.40496 11.61862,-8.40496 11.61862,-23.97886 0,-13.59625 -8.40496,-21.2596 -8.28136,-7.66335 -27.31612,-11.49502 l -15.20309,-2.96646 q -27.93413,-5.5621 -40.41797,-17.42793 -12.48384,-11.865827 -12.48384,-33.00183 0,-24.473268 17.18073,-38.563937 17.30433,-14.090669 47.58691,-14.090669 12.97825,0 26.4509,2.348445 13.47266,2.348445 27.56333,7.045335 z"
         style="opacity:1;fill:#00ff00;fill-opacity:1"
         id="path4160"
         inkscape:connector-curvature="0" />
      <g
         transform="scale(0.5284509,1.8923234)"
         style="font-style:normal;font-weight:normal;font-size:226.35958862px;line-height:125%;font-family:sans-serif;letter-spacing:0px;word-spacing:0px;fill:url(#linearGradient4204);fill-opacity:1;stroke:none;stroke-width:1px;stroke-linecap:butt;stroke-linejoin:miter;stroke-opacity:1"
         id="text4194">
        <path
           style="fill:url(#linearGradient4276);fill-opacity:1"
           d="m -1128.0059,25.468358 -3.5197,-12.17903 -19.7265,2.410594 -1.8475,-6.8728097 -1.787,-6.9001356 20.337,0 2.9871,11.3509093 c 8.5547,28.306991 15.3917,56.795886 22.4341,85.249814 l 8.7751,-33.132839 17.5013,0.787167 3.4857,-12.589113 -17.4489,-1.295579 12.9975,-50.3703593 23.9844,0 2.4617,9.3545643 -11.1324,0.228298 -2.7028,10.080776 16.6253,0.293016 20.1695,76.644069 7.1375,-27.240876 c 7.0491,0.994869 13.5987,2.524925 18.8379,5.458793 l 4.5078,-17.233262 -19.5951,-2.540137 14.4226,-55.0452413 20.33696,0 -15.02266,57.4243843 -4.5417,17.361006 -12.8201,49.005013 -23.9844,0 -3.7862,-14.42228 12.5844,-0.65032 1.9865,-11.559285 -17.4269,1.330885 -19.9948,-76.16292 -26.7476,101.46392 -23.9844,0 -4.2887,-14.58254 14.4252,0.1579 2.4379,-9.95775 -19.5146,-1.09815 -17.6929,-68.535264 c 1.8279,-1.453469 6.8755,-3.229615 8.1516,-3.656639 1.2762,-0.427024 4.8533,-1.513462 10.9778,-2.576579 z"
           id="path4225"
           inkscape:connector-curvature="0"
           sodipodi:nodetypes="ccccccccccccccccccccccccccccccccccccccccczc" />
      </g>
      <g
         transform="matrix(0.5284509,0,0,1.8923234,-0.24154386,-1.2030328)"
         style="font-style:normal;font-weight:normal;font-size:226.35958862px;line-height:125%;font-family:sans-serif;letter-spacing:0px;word-spacing:0px;fill:url(#linearGradient4274);fill-opacity:1;stroke:none;stroke-width:1px;stroke-linecap:butt;stroke-linejoin:miter;stroke-opacity:1"
         id="text4194-7" />
    </g>
    <circle
       style="opacity:1;fill:none;fill-opacity:1;stroke:#000000;stroke-width:3.42158294;stroke-miterlimit:2;stroke-dasharray:none;stroke-opacity:1"
       id="path4278"
       cx="-835.54376"
       cy="80.856262"
       r="79.063332" />
  </g>
</svg>
