<?xml version="1.0" encoding="UTF-8" standalone="no"?>
<!-- Generator: Adobe Illustrator 12.0.1, SVG Export Plug-In . SVG Version: 6.00 Build 51448)  -->

<svg
   xmlns:dc="http://purl.org/dc/elements/1.1/"
   xmlns:cc="http://creativecommons.org/ns#"
   xmlns:rdf="http://www.w3.org/1999/02/22-rdf-syntax-ns#"
   xmlns:svg="http://www.w3.org/2000/svg"
   xmlns="http://www.w3.org/2000/svg"
   xmlns:sodipodi="http://sodipodi.sourceforge.net/DTD/sodipodi-0.dtd"
   xmlns:inkscape="http://www.inkscape.org/namespaces/inkscape"
   version="1.1"
   width="334.483"
   height="326.984"
   viewBox="0 0 334.483 326.984"
   overflow="visible"
   enable-background="new 0 0 334.483 326.984"
   xml:space="preserve"
   id="svg2"
   inkscape:version="0.91 r"
   sodipodi:docname="cycle.svg"><metadata
     id="metadata89"><rdf:RDF><cc:Work
         rdf:about=""><dc:format>image/svg+xml</dc:format><dc:type
           rdf:resource="http://purl.org/dc/dcmitype/StillImage" /><dc:title></dc:title></cc:Work></rdf:RDF></metadata><defs
     id="defs87" /><sodipodi:namedview
     pagecolor="#ffffff"
     bordercolor="#666666"
     borderopacity="1"
     objecttolerance="10"
     gridtolerance="10"
     guidetolerance="10"
     inkscape:pageopacity="0"
     inkscape:pageshadow="2"
     inkscape:window-width="1680"
     inkscape:window-height="1023"
     id="namedview85"
     showgrid="false"
     inkscape:zoom="2.8869913"
     inkscape:cx="235.04774"
     inkscape:cy="187.60657"
     inkscape:window-x="1920"
     inkscape:window-y="0"
     inkscape:window-maximized="1"
     inkscape:current-layer="g5" /><g
     id="Layer_1"><g
       id="g5"><path
         d="m 26.506158,131.424 71.401,-47.886 38.996002,76.622 -36.695,-9.551 c -3.464002,22.078 0.816,45.467 13.819,65.771 11.456,17.888 27.917,30.636 46.386,37.585 l 0.018,-0.047 c 1.94,0.746 3.893,1.418 5.85,2.031 25.625,7.777 54.365,4.712 78.687,-10.857 44.089,-28.234 56.941,-86.859 28.71,-130.943 -12.792,-19.981 -31.829,-33.54 -52.925,-39.772 -22.124,-6.407 -44.998,-4.337 -64.858,4.513 l -16.744,9.541 -3.176,2.15 -21.933,-32.41 5.849,-3.96 0.042,0.064 c 6.07,-4.049 12.473,-7.6 19.142,-10.615 l -0.037,-0.08 c 25.226,-11.478 53.979,-15.155 82.328,-9.306 l 0.013,-0.045 c 2.549,0.537 5.084,1.158 7.602,1.841 0.332,0.09 0.662,0.183 0.992,0.272 0.503,0.145 1.007,0.283 1.513,0.43 3.712,1.072 7.405,2.305 11.075,3.715 69.012,26.555 103.433,104.036 76.875,173.051 -25.514,66.308 -98.026,100.674 -164.883,79.725 -29.281,-8.982 -55.656002,-27.98 -73.462002,-55.793 -19.124,-29.859 -24.895,-64.438 -18.863,-96.745 l -35.722,-9.301 z m 60.721,102.111 c 15.261002,23.83 37.178002,40.831 61.756002,50.126 l 0.02,-0.047 c 2.55,0.982 5.113,1.866 7.686,2.672 34.31,10.517 72.846,6.47 105.437,-14.4 58.885,-37.708 76.052,-116.012 38.35,-174.895 -17.153,-26.78 -42.706,-44.928 -71.003,-53.209 -0.518,-0.146 -1.034,-0.298 -1.55,-0.444 -0.255,-0.069 -0.509,-0.137 -0.76,-0.205 -24.171,-6.489 -48.907,-5.457 -71.495,1.832 l 0.001,0.089 c -11.253,3.607 -21.9,8.76 -31.654,15.254 l 13.763,20.335 c 4.565,-3.03 14.331,-8.054 14.331,-8.054 19.179,-8.748 41.039,-11.587 62.606,-7.195 l 0.011,-0.049 c 2.691,0.56 5.355,1.238 7.992,2.019 2.818,0.812 5.622,1.746 8.41,2.817 52.621,20.249 78.856,79.313 58.611,131.933 -19.442,50.524 -74.677,76.724 -125.631,60.8 -22.411,-6.818 -42.605,-21.331 -56.223,-42.602 C 93.777158,198.277 89.201158,172.877 93.086158,148.941 l 0.053,0 1.22,-5.57 29.157002,7.587 -28.635002,-56.263 -52.436,35.166 27.961,7.278 -1.299,5.41 0.176,0.124 c -5.511,30.372 -0.014,62.822 17.944,90.862 z"
         id="path7"
         inkscape:connector-curvature="0"
         style="fill:#b2b2b2" /><g
         id="g9"><g
           id="g11" /><linearGradient
           id="XMLID_12_"
           gradientUnits="userSpaceOnUse"
           x1="94.8135"
           y1="247.6929"
           x2="47.230228"
           y2="200.71945"><stop
             offset="0"
             style="stop-color:#4E76B8"
             id="stop18" /><stop
             offset="1"
             style="stop-color:#89B4E8"
             id="stop20" /></linearGradient></g><g
         id="g24"><g
           id="g26" /><linearGradient
           id="XMLID_1_"
           gradientUnits="userSpaceOnUse"
           x1="97.1699"
           y1="140.8911"
           x2="33.7263"
           y2="77.9847"><stop
             offset="0"
             style="stop-color:#4E76B8"
             id="stop33" /><stop
             offset="1"
             style="stop-color:#89B4E8"
             id="stop35" /></linearGradient></g><g
         id="g39"><g
           id="g41" /><linearGradient
           id="XMLID_3_"
           gradientUnits="userSpaceOnUse"
           x1="187.0361"
           y1="297.4644"
           x2="120.9034"
           y2="249.0745"><stop
             offset="0"
             style="stop-color:#4E76B8"
             id="stop48" /><stop
             offset="1"
             style="stop-color:#89B4E8"
             id="stop50" /></linearGradient></g><g
         id="g54"><g
           id="g56" /><linearGradient
           id="XMLID_5_"
           gradientUnits="userSpaceOnUse"
           x1="290.7803"
           y1="246.3188"
           x2="211.7448"
           y2="183.9501"><stop
             offset="0"
             style="stop-color:#4E76B8"
             id="stop63" /><stop
             offset="1"
             style="stop-color:#89B4E8"
             id="stop65" /></linearGradient></g><g
         id="g69"><g
           id="g71" /><linearGradient
           id="XMLID_7_"
           gradientUnits="userSpaceOnUse"
           x1="189.7773"
           y1="88.8867"
           x2="124.1829"
           y2="27.5934"><stop
             offset="0"
             style="stop-color:#4E76B8"
             id="stop78" /><stop
             offset="1"
             style="stop-color:#89B4E8"
             id="stop80" /></linearGradient></g></g></g><g
     id="Layer_44" /></svg>